<?xml version="1.0" encoding="UTF-8" standalone="no"?>
<!DOCTYPE svg PUBLIC "-//W3C//DTD SVG 20010904//EN"
              "http://www.w3.org/TR/2001/REC-SVG-20010904/DTD/svg10.dtd">

<svg xmlns="http://www.w3.org/2000/svg"
     width="105.41mm" height="105.41mm"
     viewBox="0 0 1245 1245">
  <path id="Blauw"
        fill="#0f70b7"
        d="M 305.00,0.47
           C 317.62,-1.30 332.17,4.82 345.00,7.40
             368.71,12.17 392.82,15.72 417.00,16.00
             417.00,16.00 432.00,17.00 432.00,17.00
             432.00,17.00 474.00,17.00 474.00,17.00
             474.00,17.00 488.00,16.00 488.00,16.00
             488.00,16.00 540.00,15.00 540.00,15.00
             540.00,15.00 557.00,14.00 557.00,14.00
             557.00,14.00 607.00,14.00 607.00,14.00
             607.00,14.00 624.00,15.00 624.00,15.00
             624.00,15.00 664.00,17.83 664.00,17.83
             718.42,23.10 772.12,31.39 826.00,40.75
             893.94,52.55 959.10,64.09 1024.00,88.58
             1077.55,108.78 1127.92,137.75 1167.09,180.00
             1178.29,192.09 1189.08,204.79 1197.55,219.00
             1214.67,247.72 1221.88,280.08 1225.17,313.00
             1225.17,313.00 1227.00,334.00 1227.00,334.00
             1227.00,334.00 1228.04,353.00 1228.04,353.00
             1228.04,353.00 1228.04,366.00 1228.04,366.00
             1228.04,366.00 1229.00,378.00 1229.00,378.00
             1229.00,378.00 1230.00,411.00 1230.00,411.00
             1230.00,411.00 1231.00,427.00 1231.00,427.00
             1231.00,427.00 1233.00,475.00 1233.00,475.00
             1233.00,475.00 1234.00,492.00 1234.00,492.00
             1234.00,492.00 1235.00,514.00 1235.00,514.00
             1235.00,514.00 1236.00,543.00 1236.00,543.00
             1236.00,543.00 1237.00,556.00 1237.00,556.00
             1237.00,556.00 1238.00,586.00 1238.00,586.00
             1238.00,586.00 1239.00,599.00 1239.00,599.00
             1239.00,599.00 1240.00,629.00 1240.00,629.00
             1240.00,629.00 1241.00,645.00 1241.00,645.00
             1241.00,645.00 1243.00,692.00 1243.00,692.00
             1243.00,692.00 1244.04,707.00 1244.04,707.00
             1244.04,707.00 1244.04,722.00 1244.04,722.00
             1244.04,722.00 1244.96,733.00 1244.96,733.00
             1244.96,733.00 1243.96,741.00 1243.96,741.00
             1243.96,741.00 1243.96,751.00 1243.96,751.00
             1243.96,751.00 1239.58,777.00 1239.58,777.00
             1234.16,801.51 1224.86,820.06 1216.69,843.00
             1207.86,867.83 1201.07,893.28 1195.42,919.00
             1195.42,919.00 1182.27,993.00 1182.27,993.00
             1177.35,1026.44 1175.32,1047.37 1160.69,1079.00
             1127.98,1149.72 1051.28,1177.03 980.00,1190.39
             938.31,1198.20 896.06,1200.15 854.00,1204.17
             854.00,1204.17 717.00,1215.83 717.00,1215.83
             717.00,1215.83 674.00,1219.17 674.00,1219.17
             674.00,1219.17 537.00,1230.83 537.00,1230.83
             537.00,1230.83 493.00,1234.17 493.00,1234.17
             493.00,1234.17 405.00,1241.09 405.00,1241.09
             405.00,1241.09 350.00,1244.00 350.00,1244.00
             350.00,1244.00 333.00,1245.00 333.00,1245.00
             333.00,1245.00 297.00,1245.00 297.00,1245.00
             297.00,1245.00 282.00,1244.00 282.00,1244.00
             282.00,1244.00 219.00,1239.17 219.00,1239.17
             193.54,1236.62 163.83,1233.87 143.00,1217.48
             116.55,1196.68 107.60,1153.98 97.98,1123.00
             74.30,1046.82 56.31,969.29 41.20,891.00
             30.33,834.68 21.20,777.87 13.72,721.00
             9.20,686.66 5.27,652.52 2.91,618.00
             2.91,618.00 2.00,606.00 2.00,606.00
             2.00,606.00 1.00,590.00 1.00,590.00
             1.00,590.00 1.00,576.00 1.00,576.00
             1.00,576.00 0.00,560.00 0.00,560.00
             0.00,560.00 0.00,535.00 0.00,535.00
             0.00,535.00 0.98,522.00 0.98,522.00
             0.98,522.00 0.98,507.00 0.98,507.00
             0.98,507.00 1.96,496.00 1.96,496.00
             1.96,496.00 5.84,448.00 5.84,448.00
             10.58,403.63 19.00,354.62 28.58,311.00
             28.58,311.00 49.58,218.00 49.58,218.00
             56.39,187.32 64.08,154.82 82.74,129.00
             96.47,110.01 119.31,94.44 139.00,81.95
             175.32,58.91 214.09,40.16 254.00,24.20
             254.00,24.20 285.00,11.78 285.00,11.78
             291.53,8.11 293.10,3.30 305.00,0.47 Z
           M 1006.00,149.00
           C 1006.00,151.23 1007.42,150.54 1009.00,150.00
             1009.00,150.00 1006.00,149.00 1006.00,149.00 Z
           M 802.00,240.00
           C 802.00,240.00 801.00,240.00 801.00,240.00
             801.00,240.00 802.00,241.00 802.00,241.00
             802.00,241.00 802.00,240.00 802.00,240.00 Z
           M 637.00,887.00
           C 637.00,887.00 668.00,865.02 668.00,865.02
             691.89,848.56 723.19,831.35 753.00,831.00
             753.00,831.00 766.00,831.00 766.00,831.00
             773.09,831.03 780.89,832.31 787.00,836.13
             802.45,845.76 809.61,865.31 798.37,881.00
             792.75,888.83 778.35,896.88 770.00,902.86
             770.00,902.86 724.00,940.13 724.00,940.13
             717.83,945.43 711.58,950.79 706.30,957.00
             704.74,958.83 701.73,962.36 702.02,964.91
             702.35,967.71 706.77,970.22 709.00,971.55
             716.28,975.90 724.00,978.67 732.00,981.33
             768.02,993.33 804.35,987.28 840.00,977.14
             885.49,964.20 929.36,943.93 972.00,923.78
             987.47,916.47 1017.71,904.47 1028.83,892.91
             1039.15,882.18 1046.23,860.32 1050.42,846.00
             1056.98,823.62 1064.96,801.70 1065.00,778.00
             1065.00,778.00 1065.00,750.00 1065.00,750.00
             1065.00,750.00 1064.00,733.00 1064.00,733.00
             1064.00,733.00 1061.91,696.00 1061.91,696.00
             1061.91,696.00 1059.09,663.00 1059.09,663.00
             1059.09,663.00 1057.91,639.00 1057.91,639.00
             1057.91,639.00 1057.00,625.00 1057.00,625.00
             1057.00,625.00 1056.09,615.00 1056.09,615.00
             1056.09,615.00 1055.00,592.00 1055.00,592.00
             1055.00,592.00 1054.09,582.00 1054.09,582.00
             1054.09,582.00 1053.00,559.00 1053.00,559.00
             1053.00,559.00 1051.00,533.00 1051.00,533.00
             1051.00,533.00 1051.00,524.00 1051.00,524.00
             1049.16,498.44 1046.11,473.25 1037.31,449.00
             1030.22,429.50 1018.12,411.19 1006.67,394.00
             1006.67,394.00 966.87,337.00 966.87,337.00
             951.14,316.02 934.54,295.57 916.00,277.00
             906.90,267.88 896.22,257.16 884.00,252.47
             876.20,249.47 864.37,249.04 856.00,249.00
             856.00,249.00 842.00,248.00 842.00,248.00
             833.28,247.90 825.47,247.08 817.00,244.85
             812.60,243.69 806.36,240.82 802.00,242.00
             827.15,260.96 862.90,299.35 883.41,324.00
             893.30,335.88 917.34,366.54 924.54,379.00
             939.72,405.30 907.81,430.49 883.00,420.52
             872.69,416.38 867.81,407.57 861.71,399.00
             861.71,399.00 835.75,365.00 835.75,365.00
             809.60,333.35 780.58,304.20 748.00,279.12
             739.87,272.86 718.53,256.26 710.00,253.00
             707.82,256.54 706.03,259.55 702.83,262.32
             695.48,268.67 673.84,276.04 664.00,278.86
             641.22,285.39 618.54,288.48 595.00,290.09
             595.00,290.09 583.00,291.00 583.00,291.00
             583.00,291.00 561.00,291.00 561.00,291.00
             550.70,291.00 531.09,292.03 522.00,289.23
             518.10,288.02 514.59,285.90 511.00,284.00
             511.00,284.00 484.00,305.42 484.00,305.42
             484.00,305.42 437.00,339.58 437.00,339.58
             437.00,339.58 397.00,362.44 397.00,362.44
             377.75,374.69 372.37,389.76 354.00,388.96
             338.00,388.26 324.05,372.63 323.09,357.00
             322.12,341.13 335.68,329.53 347.00,320.66
             364.95,306.60 385.69,296.78 405.00,284.81
             411.87,280.55 425.94,271.65 431.00,266.00
             398.91,266.00 361.22,262.55 333.00,280.70
             304.61,298.95 286.05,338.39 273.80,369.00
             258.65,406.88 245.97,445.24 233.33,484.00
             220.43,523.57 207.47,561.09 205.09,603.00
             205.09,603.00 205.96,614.00 205.96,614.00
             207.88,656.52 235.25,697.02 252.69,735.00
             267.76,767.82 282.05,809.84 302.86,839.00
             313.03,853.25 326.50,868.28 344.00,873.00
             341.99,865.94 332.52,849.95 328.40,843.00
             317.39,824.44 305.57,806.43 292.85,789.00
             283.60,776.32 269.05,762.92 270.09,746.00
             271.46,723.76 299.19,709.42 317.99,721.56
             324.17,725.55 335.71,741.45 340.63,748.00
             356.27,768.86 370.59,790.65 384.00,813.00
             390.62,809.93 393.15,805.49 401.00,803.68
             408.25,802.01 419.39,804.09 427.00,804.83
             427.00,804.83 470.00,808.83 470.00,808.83
             470.00,808.83 529.00,813.91 529.00,813.91
             529.00,813.91 566.00,816.72 566.00,816.72
             585.77,819.06 610.02,816.84 625.99,831.18
             638.65,842.56 638.02,856.51 638.00,872.00
             638.00,872.00 637.00,887.00 637.00,887.00 Z
           M 427.00,470.52
           C 438.08,468.76 449.25,470.19 459.00,475.88
             467.73,480.97 467.76,484.98 471.21,486.98
             473.68,488.41 479.06,487.97 482.00,488.00
             493.81,488.14 507.61,492.00 515.70,501.04
             530.61,517.68 526.82,550.31 520.33,570.00
             518.47,575.65 515.65,582.14 512.22,587.00
             503.34,599.59 490.17,606.31 475.00,607.96
             475.00,607.96 467.00,607.96 467.00,607.96
             463.55,608.32 461.63,609.08 458.00,608.82
             458.00,608.82 440.00,608.00 440.00,608.00
             434.43,607.93 428.38,606.81 423.00,605.36
             419.08,604.30 415.50,602.99 412.00,600.91
             393.00,589.62 393.00,571.39 393.00,552.00
             393.00,552.00 393.00,527.00 393.00,527.00
             393.00,527.00 393.83,518.00 393.83,518.00
             394.32,513.00 394.31,509.06 395.50,504.00
             399.50,487.10 410.03,475.08 427.00,470.52 Z
           M 737.00,490.44
           C 752.71,488.43 767.04,492.92 780.00,501.67
             784.66,504.82 788.65,507.90 791.33,513.00
             793.16,516.49 794.61,523.05 794.92,527.00
             794.83,529.51 794.10,531.55 794.92,534.00
             796.83,538.27 801.76,540.14 805.10,554.00
             807.50,563.94 807.12,574.81 807.00,585.00
             806.78,603.25 799.99,634.21 787.82,648.00
             777.71,659.44 763.81,665.24 749.00,667.47
             738.11,669.27 726.87,669.31 716.00,667.47
             691.90,663.12 672.33,649.34 665.43,625.00
             662.33,614.07 662.87,606.17 663.00,595.00
             663.11,586.04 666.09,572.71 668.58,564.00
             678.50,529.22 699.07,497.45 737.00,490.44 Z" />
</svg>
