<?xml version="1.0" encoding="UTF-8" standalone="no"?>
<!DOCTYPE svg PUBLIC "-//W3C//DTD SVG 20010904//EN"
              "http://www.w3.org/TR/2001/REC-SVG-20010904/DTD/svg10.dtd">

<svg xmlns="http://www.w3.org/2000/svg"
     width="105.241mm" height="105.41mm"
     viewBox="0 0 1243 1245">
  <path id="15"
        fill="#e6186f"
        d="M 1052.00,436.00
           C 1052.00,436.00 1054.00,436.00 1054.00,436.00
             1061.19,454.77 1078.39,448.99 1080.82,469.00
             1083.27,489.18 1068.20,515.94 1058.42,533.00
             1058.42,533.00 1029.58,585.00 1029.58,585.00
             1029.58,585.00 991.00,646.00 991.00,646.00
             991.00,646.00 984.00,637.00 984.00,637.00
             988.41,630.83 991.10,622.68 990.62,615.00
             990.28,609.52 987.15,605.12 989.45,600.00
             991.44,595.58 996.54,591.13 997.70,588.00
             998.90,584.74 996.56,578.33 1000.91,569.00
             1003.73,562.95 1008.58,559.14 1009.81,556.00
             1011.21,552.44 1008.48,548.76 1012.09,539.00
             1015.11,530.86 1021.07,527.19 1022.31,523.00
             1023.14,520.20 1020.94,515.96 1024.71,506.00
             1027.59,498.39 1032.80,495.42 1034.40,491.00
             1036.00,486.60 1033.45,481.30 1037.18,473.00
             1040.28,466.11 1045.09,462.71 1046.79,459.00
             1050.01,451.94 1048.80,442.90 1052.00,436.00 Z" />
  <path id="14"
        fill="white"
        d="M 573.00,136.42
           C 573.00,136.42 623.00,137.00 623.00,137.00
             623.00,137.00 633.00,137.91 633.00,137.91
             668.65,140.36 703.81,146.40 738.00,157.02
             738.00,157.02 798.00,178.67 798.00,178.67
             825.47,187.79 854.21,188.25 882.00,197.51
             882.00,197.51 901.00,205.13 901.00,205.13
             903.22,206.06 906.80,206.94 908.44,208.56
             908.44,208.56 913.11,217.00 913.11,217.00
             916.34,221.93 921.73,226.54 927.00,229.17
             936.58,233.96 951.72,231.59 960.00,235.53
             960.00,235.53 997.00,259.28 997.00,259.28
             1033.76,285.01 1057.59,307.78 1081.68,346.00
             1081.68,346.00 1102.75,383.00 1102.75,383.00
             1102.75,383.00 1111.93,402.83 1111.93,402.83
             1111.93,402.83 1128.10,420.00 1128.10,420.00
             1139.75,435.38 1144.22,452.96 1144.00,472.00
             1143.70,497.10 1131.85,521.56 1121.86,544.00
             1108.52,573.96 1092.26,602.89 1075.40,631.00
             1075.40,631.00 1041.84,682.98 1041.84,682.98
             1035.89,690.82 1030.15,690.68 1023.93,699.01
             1015.58,710.19 1021.71,711.45 1013.13,723.00
             962.98,790.46 898.72,860.88 838.00,918.96
             838.00,918.96 829.00,927.04 829.00,927.04
             771.24,982.28 710.71,1033.82 633.00,1057.98
             615.32,1063.47 584.32,1069.78 566.00,1070.00
             566.00,1070.00 547.00,1071.00 547.00,1071.00
             547.00,1071.00 515.00,1070.00 515.00,1070.00
             515.00,1070.00 505.00,1069.09 505.00,1069.09
             476.20,1067.07 447.54,1062.86 419.00,1058.42
             365.06,1050.05 313.02,1042.60 266.00,1012.31
             238.40,994.53 214.44,971.53 192.85,947.00
             178.94,931.21 159.72,908.99 149.43,891.00
             135.34,866.39 128.83,842.81 124.73,815.00
             124.73,815.00 122.84,803.00 122.84,803.00
             122.84,803.00 122.84,795.00 122.84,795.00
             122.84,795.00 122.00,785.00 122.00,785.00
             121.68,757.50 119.57,730.36 116.83,703.00
             116.83,703.00 111.83,654.00 111.83,654.00
             111.83,654.00 110.00,632.00 110.00,632.00
             109.60,597.50 110.09,572.22 116.80,538.00
             132.83,456.29 174.20,381.86 220.98,314.00
             245.38,278.59 276.50,234.26 309.00,206.43
             342.52,177.72 381.71,164.92 424.00,155.58
             458.26,148.01 493.10,142.55 528.00,139.17
             528.00,139.17 547.00,137.91 547.00,137.91
             547.00,137.91 558.00,137.00 558.00,137.00
             563.39,136.98 567.58,137.19 573.00,136.42 Z
           M 574.00,198.14
           C 568.03,199.14 565.88,198.99 560.00,199.00
             560.00,199.00 548.00,199.91 548.00,199.91
             512.28,202.36 477.03,206.84 442.00,214.58
             409.98,221.65 382.26,228.89 356.00,249.81
             327.80,272.27 302.57,306.84 281.12,336.00
             239.25,392.89 199.14,462.01 181.89,531.00
             173.77,563.50 171.61,593.68 172.00,627.00
             172.00,627.00 172.91,637.00 172.91,637.00
             172.91,637.00 174.83,662.00 174.83,662.00
             174.83,662.00 180.09,729.00 180.09,729.00
             180.09,729.00 182.09,758.00 182.09,758.00
             182.09,758.00 183.00,768.00 183.00,768.00
             183.00,768.00 184.00,788.00 184.00,788.00
             184.03,805.20 186.80,824.81 192.69,841.00
             201.52,865.23 220.92,884.29 237.83,903.00
             258.87,926.27 281.30,949.68 309.00,965.14
             349.11,987.52 399.94,994.40 445.00,1000.28
             445.00,1000.28 507.00,1007.09 507.00,1007.09
             507.00,1007.09 517.00,1008.00 517.00,1008.00
             517.00,1008.00 537.00,1009.00 537.00,1009.00
             561.14,1009.04 586.57,1007.27 610.00,1001.12
             694.58,978.91 760.16,908.84 820.00,849.00
             882.00,787.00 941.90,721.15 990.67,648.00
             990.67,648.00 1030.58,585.00 1030.58,585.00
             1030.58,585.00 1058.28,535.00 1058.28,535.00
             1067.51,518.76 1083.15,491.03 1081.91,472.00
             1081.53,466.14 1079.77,460.47 1075.79,456.04
             1069.52,449.06 1058.62,448.29 1053.52,433.00
             1051.12,425.80 1052.92,423.65 1050.65,418.00
             1050.65,418.00 1039.85,397.00 1039.85,397.00
             1023.20,367.81 1004.47,343.10 978.00,322.00
             962.01,309.26 935.27,293.73 917.00,283.70
             898.81,273.71 880.62,262.68 861.00,255.69
             836.38,246.92 804.27,245.38 774.00,235.98
             774.00,235.98 747.00,226.23 747.00,226.23
             747.00,226.23 735.00,222.65 735.00,222.65
             735.00,222.65 712.00,213.04 712.00,213.04
             712.00,213.04 696.00,209.87 696.00,209.87
             674.88,204.81 653.65,201.43 632.00,199.91
             632.00,199.91 622.00,199.00 622.00,199.00
             622.00,199.00 602.00,198.14 602.00,198.14
             602.00,198.14 574.00,198.14 574.00,198.14 Z
           M 698.00,552.00
           C 701.87,573.52 704.60,595.22 706.09,617.00
             706.09,617.00 707.00,627.00 707.00,627.00
             707.65,682.70 686.10,735.58 634.00,761.63
             619.55,768.86 596.18,774.97 580.00,775.00
             580.00,775.00 559.00,775.00 559.00,775.00
             524.07,774.59 479.95,756.72 449.00,741.25
             428.08,730.79 404.11,719.21 389.76,700.00
             375.50,680.91 370.51,657.25 368.91,634.00
             368.91,634.00 368.01,625.00 368.01,625.00
             368.01,625.00 369.04,612.00 369.04,612.00
             369.04,612.00 369.04,604.00 369.04,604.00
             371.21,582.67 377.19,561.17 386.75,542.00
             386.75,542.00 391.35,533.05 391.35,533.05
             394.20,528.63 396.92,528.59 401.00,525.89
             405.06,523.21 407.73,520.14 410.24,516.00
             416.40,505.82 413.47,500.96 417.43,496.13
             417.43,496.13 432.00,484.21 432.00,484.21
             457.40,464.21 478.41,458.12 510.00,455.91
             510.00,455.91 520.00,455.00 520.00,455.00
             520.00,455.00 543.00,455.00 543.00,455.00
             543.00,455.00 555.00,455.91 555.00,455.91
             607.14,459.49 658.19,473.39 706.00,494.42
             731.52,505.65 728.66,547.26 698.00,552.00 Z
           M 634.00,533.00
           C 634.00,533.00 608.00,526.42 608.00,526.42
             578.22,519.85 547.49,515.65 517.00,516.00
             506.23,516.13 491.64,519.14 482.00,523.97
             452.65,538.68 436.17,576.18 431.08,607.00
             428.56,622.27 428.35,646.71 437.11,660.00
             446.06,673.59 473.19,683.84 488.00,691.25
             530.40,712.45 598.04,732.41 631.23,685.00
             635.99,678.20 639.29,670.96 641.57,663.00
             644.93,651.27 646.14,637.19 646.00,625.00
             646.00,625.00 645.09,615.00 645.09,615.00
             645.09,615.00 639.57,570.00 639.57,570.00
             639.57,570.00 634.00,533.00 634.00,533.00 Z" />
  <path id="13"
        fill="#ffed00"
        d="M 463.00,1001.00
           C 469.07,997.59 475.26,992.70 482.00,990.79
             495.32,987.00 509.75,995.36 516.00,1007.00
             516.00,1007.00 483.00,1004.15 483.00,1004.15
             483.00,1004.15 463.00,1001.00 463.00,1001.00 Z
           M 644.00,1120.00
           C 659.14,1115.70 673.12,1123.23 680.01,1137.00
             684.91,1146.79 681.03,1150.60 686.15,1153.35
             686.15,1153.35 705.00,1159.02 705.00,1159.02
             705.00,1159.02 755.00,1176.58 755.00,1176.58
             763.28,1179.72 774.32,1183.46 781.00,1189.21
             784.30,1192.05 788.03,1196.10 790.00,1200.00
             798.06,1215.96 789.71,1235.28 774.00,1242.67
             760.83,1248.87 749.16,1242.43 737.00,1237.60
             717.44,1229.84 697.23,1222.94 677.00,1217.14
             638.00,1205.97 616.79,1202.47 577.00,1197.28
             554.96,1194.41 520.90,1191.68 501.00,1183.80
             481.76,1176.18 463.83,1163.85 447.00,1151.97
             447.00,1151.97 429.00,1139.42 429.00,1139.42
             429.00,1139.42 408.00,1127.75 408.00,1127.75
             405.78,1126.64 400.18,1123.58 398.00,1123.39
             394.45,1123.08 389.00,1127.66 386.00,1129.67
             386.00,1129.67 357.00,1149.67 357.00,1149.67
             329.04,1168.28 295.66,1188.59 261.00,1189.00
             253.29,1189.09 245.55,1188.39 238.00,1186.79
             233.40,1185.81 227.98,1184.39 224.00,1181.87
             212.10,1174.32 206.45,1158.39 210.57,1145.00
             212.45,1138.91 219.23,1128.84 222.81,1123.00
             222.81,1123.00 250.80,1079.00 250.80,1079.00
             259.12,1065.29 274.36,1036.86 287.00,1028.41
             288.39,1027.48 289.30,1027.04 291.00,1027.10
             291.00,1027.10 309.00,1034.19 309.00,1034.19
             326.76,1041.07 350.23,1047.60 369.00,1050.92
             369.00,1050.92 455.00,1064.28 455.00,1064.28
             455.00,1064.28 510.00,1070.09 510.00,1070.09
             510.00,1070.09 522.00,1071.00 522.00,1071.00
             522.00,1071.00 555.00,1071.00 555.00,1071.00
             575.79,1071.03 605.01,1085.16 622.00,1096.67
             631.41,1103.04 639.39,1109.37 644.00,1120.00 Z" />
  <path id="12"
        fill="#fed116"
        d="M 378.00,988.00
           C 397.63,977.99 426.63,984.22 447.00,989.37
             452.70,990.82 466.50,994.25 471.00,997.00
             471.00,997.00 463.00,1001.13 463.00,1001.13
             463.00,1001.13 442.00,999.13 442.00,999.13
             442.00,999.13 401.00,993.08 401.00,993.08
             401.00,993.08 378.00,988.00 378.00,988.00 Z
           M 634.00,1058.00
           C 636.40,1063.12 631.75,1066.46 629.32,1071.00
             623.07,1082.67 628.54,1085.26 624.00,1096.00
             628.33,1098.16 629.25,1099.55 631.00,1104.00
             631.00,1104.00 619.00,1095.44 619.00,1095.44
             619.00,1095.44 595.00,1082.43 595.00,1082.43
             595.00,1082.43 563.00,1071.00 563.00,1071.00
             581.21,1070.60 617.03,1064.35 634.00,1058.00 Z
           M 639.00,1111.00
           C 653.33,1117.68 651.49,1115.93 667.00,1116.00
             677.80,1116.05 681.83,1120.19 690.00,1119.68
             699.83,1119.07 714.97,1124.36 725.00,1126.87
             753.54,1134.02 790.85,1147.45 816.00,1162.45
             820.25,1164.99 824.43,1167.95 827.37,1172.00
             838.46,1187.32 832.07,1210.34 816.00,1219.47
             807.99,1224.02 800.60,1223.13 792.00,1222.00
             792.19,1213.46 793.92,1209.59 789.62,1201.00
             783.60,1188.95 772.67,1184.35 761.00,1179.60
             761.00,1179.60 706.00,1160.00 706.00,1160.00
             706.00,1160.00 685.31,1153.58 685.31,1153.58
             682.72,1151.90 681.68,1142.59 680.12,1139.00
             675.24,1127.71 663.73,1118.46 651.00,1119.09
             644.76,1119.40 643.90,1121.16 639.00,1111.00 Z
           M 396.00,1122.88
           C 401.13,1122.66 404.52,1125.01 409.00,1127.25
             409.00,1127.25 432.00,1140.42 432.00,1140.42
             434.56,1142.02 441.69,1145.90 441.84,1149.09
             441.97,1151.72 438.75,1154.77 436.91,1156.33
             431.09,1161.28 425.46,1163.39 418.00,1164.56
             404.92,1166.62 390.99,1160.41 382.09,1150.99
             379.73,1148.48 374.04,1141.72 374.82,1138.09
             375.34,1135.69 378.12,1133.97 380.00,1132.67
             384.53,1129.54 391.02,1124.74 396.00,1122.88 Z" />
  <path id="11"
        fill="#f9b233"
        d="M 315.00,967.00
           C 375.39,949.36 443.46,949.71 506.00,950.00
             506.00,950.00 528.00,951.85 528.00,951.85
             566.46,956.44 598.69,967.13 626.00,996.00
             626.00,996.00 609.00,1000.58 609.00,1000.58
             609.00,1000.58 594.00,1003.75 594.00,1003.75
             570.62,1007.81 554.44,1008.04 531.00,1008.00
             527.66,1007.99 519.20,1007.73 516.51,1006.01
             514.22,1004.55 506.93,993.27 495.00,990.53
             490.52,989.50 484.29,989.83 480.00,991.47
             476.02,992.99 472.44,996.04 468.00,995.62
             468.00,995.62 447.00,989.88 447.00,989.88
             429.81,985.37 418.96,982.79 401.00,983.00
             388.37,983.15 382.06,987.49 377.00,987.73
             373.35,987.90 362.99,984.94 359.00,983.88
             347.90,980.96 323.49,973.75 315.00,967.00 Z
           M 289.00,1027.00
           C 269.36,1041.86 253.43,1077.75 237.85,1099.00
             228.24,1112.10 210.01,1134.40 195.00,1140.53
             174.02,1149.09 151.29,1136.58 151.00,1113.00
             150.94,1107.43 150.78,1103.22 153.19,1098.00
             156.50,1090.82 169.58,1080.91 175.83,1074.00
             175.83,1074.00 219.01,1021.00 219.01,1021.00
             224.62,1015.26 230.64,1009.79 237.00,1004.89
             238.90,1003.42 242.71,1000.36 245.00,999.95
             248.74,999.27 254.01,1004.16 257.00,1006.29
             257.00,1006.29 289.00,1027.00 289.00,1027.00 Z
           M 633.92,1058.00
           C 644.38,1055.63 661.88,1047.99 672.00,1043.58
             676.83,1041.47 683.89,1036.82 689.00,1037.37
             691.76,1037.66 698.29,1039.91 701.00,1041.01
             724.75,1050.69 727.42,1063.07 745.00,1077.54
             774.63,1101.92 814.80,1106.77 846.00,1128.72
             859.44,1138.17 875.00,1154.21 873.91,1172.00
             872.57,1193.72 850.47,1204.59 831.00,1199.00
             831.80,1195.81 832.82,1191.26 832.62,1188.00
             831.42,1168.52 813.03,1161.27 798.00,1153.75
             774.48,1141.99 749.39,1133.82 724.00,1127.12
             714.84,1124.70 700.04,1119.82 690.99,1119.98
             677.66,1120.20 677.82,1115.70 664.00,1116.06
             657.97,1116.15 656.36,1117.64 650.00,1116.06
             634.91,1112.46 623.42,1097.79 625.31,1082.00
             626.50,1072.14 632.94,1064.70 633.92,1062.00
             634.45,1060.18 634.14,1059.71 633.92,1058.00 Z" />
  <path id="10"
        fill="#f6a21a"
        d="M 283.00,944.00
           C 317.40,929.20 339.88,923.81 377.00,919.84
             377.00,919.84 401.00,918.00 401.00,918.00
             401.00,918.00 460.00,918.00 460.00,918.00
             460.00,918.00 481.00,919.00 481.00,919.00
             481.00,919.00 491.00,920.00 491.00,920.00
             491.00,920.00 500.00,920.00 500.00,920.00
             500.00,920.00 522.00,921.91 522.00,921.91
             551.92,923.96 582.34,926.64 610.00,939.31
             627.14,947.16 634.09,954.89 648.00,966.56
             648.00,966.56 664.00,979.00 664.00,979.00
             664.00,979.00 648.00,986.69 648.00,986.69
             648.00,986.69 624.00,996.00 624.00,996.00
             611.65,980.04 587.96,967.63 569.00,961.33
             535.27,950.13 501.08,949.95 466.00,950.00
             466.00,950.00 451.00,951.00 451.00,951.00
             451.00,951.00 435.00,951.00 435.00,951.00
             435.00,951.00 420.00,952.00 420.00,952.00
             399.60,952.23 370.25,955.77 350.00,959.42
             350.00,959.42 328.00,964.13 328.00,964.13
             324.92,964.88 318.81,966.90 316.00,966.70
             312.25,966.43 308.13,963.64 305.00,961.68
             298.36,957.52 286.53,950.86 283.00,944.00 Z
           M 281.00,944.00
           C 281.00,944.00 282.00,944.00 282.00,944.00
             282.00,944.00 281.00,945.00 281.00,945.00
             281.00,945.00 281.00,944.00 281.00,944.00 Z
           M 226.00,982.00
           C 226.00,982.00 246.00,998.00 246.00,998.00
             246.00,998.00 246.00,1000.00 246.00,1000.00
             238.16,1004.51 231.37,1010.64 225.00,1017.00
             225.00,1017.00 211.44,1031.00 211.44,1031.00
             211.44,1031.00 178.92,1072.00 178.92,1072.00
             178.92,1072.00 170.83,1080.58 170.83,1080.58
             165.49,1085.70 157.22,1091.57 154.00,1098.00
             151.41,1103.16 151.02,1109.33 151.00,1115.00
             146.60,1115.00 141.19,1115.32 137.00,1114.24
             122.31,1110.47 109.98,1096.76 111.18,1081.00
             112.42,1064.80 128.04,1054.52 140.00,1045.63
             170.45,1022.98 197.35,1010.02 226.00,982.00 Z
           M 727.00,1012.00
           C 738.89,1020.25 744.35,1025.74 758.00,1033.57
             758.00,1033.57 804.00,1057.25 804.00,1057.25
             829.57,1070.12 855.33,1084.31 878.00,1101.89
             900.43,1119.29 891.22,1150.81 870.00,1157.00
             863.47,1142.37 848.65,1130.53 835.00,1122.72
             807.05,1106.74 774.01,1100.59 748.00,1081.11
             725.96,1064.60 717.76,1042.34 687.00,1038.00
             689.44,1034.20 695.96,1031.58 700.00,1029.28
             708.32,1024.55 719.87,1018.03 727.00,1012.00 Z" />
  <path id="9"
        fill="#f39200"
        d="M 255.00,918.00
           C 276.77,902.59 296.86,889.78 323.00,882.88
             382.83,867.11 443.03,888.42 503.00,891.04
             503.00,891.04 516.00,892.00 516.00,892.00
             516.00,892.00 569.00,892.00 569.00,892.00
             569.00,892.00 584.00,891.00 584.00,891.00
             600.31,890.81 617.09,892.88 632.00,899.89
             644.34,905.69 658.03,918.06 669.00,926.58
             669.00,926.58 706.00,951.00 706.00,951.00
             700.02,958.07 682.50,968.11 674.00,973.20
             669.22,976.06 665.60,979.16 660.00,976.44
             653.67,973.37 641.79,962.36 636.00,957.43
             625.01,948.07 616.45,942.53 603.00,937.20
             575.39,926.27 546.27,923.91 517.00,921.91
             517.00,921.91 469.00,919.00 469.00,919.00
             469.00,919.00 452.00,918.00 452.00,918.00
             452.00,918.00 407.00,918.00 407.00,918.00
             407.00,918.00 395.00,918.91 395.00,918.91
             370.16,920.61 346.05,923.57 322.00,930.42
             311.23,933.49 305.44,935.35 295.00,939.60
             291.96,940.84 284.98,944.42 282.00,943.89
             279.32,943.40 276.08,940.20 274.00,938.42
             268.45,933.68 258.00,924.34 255.00,918.00 Z
           M 112.00,1088.00
           C 102.78,1088.00 98.45,1088.48 90.00,1083.66
             74.53,1074.85 67.98,1054.57 77.48,1039.00
             81.23,1032.86 96.67,1020.40 103.00,1016.02
             124.63,1001.09 148.73,990.75 172.00,978.74
             172.00,978.74 192.00,966.66 192.00,966.66
             194.30,965.09 199.43,960.94 202.00,960.82
             205.08,960.68 207.98,964.02 210.00,966.00
             210.00,966.00 227.00,983.00 227.00,983.00
             227.00,983.00 192.00,1011.57 192.00,1011.57
             192.00,1011.57 140.00,1046.87 140.00,1046.87
             130.86,1053.73 116.82,1063.95 113.10,1075.00
             111.68,1079.25 112.00,1083.58 112.00,1088.00 Z
           M 728.00,1012.00
           C 728.00,1012.00 754.00,993.13 754.00,993.13
             756.47,991.28 762.12,986.36 765.00,986.23
             767.55,986.12 773.58,990.03 776.00,991.42
             776.00,991.42 801.00,1005.99 801.00,1005.99
             801.00,1005.99 864.00,1042.58 864.00,1042.58
             864.00,1042.58 896.98,1062.33 896.98,1062.33
             914.53,1077.26 908.01,1105.88 888.00,1115.00
             883.80,1106.85 879.16,1103.96 872.00,1098.63
             861.79,1091.03 851.06,1084.01 840.00,1077.72
             840.00,1077.72 812.00,1062.26 812.00,1062.26
             812.00,1062.26 748.00,1028.58 748.00,1028.58
             748.00,1028.58 728.00,1014.00 728.00,1014.00
             728.00,1014.00 728.00,1012.00 728.00,1012.00 Z" />
  <path id="8"
        fill="#ee720b"
        d="M 296.00,763.00
           C 296.00,763.00 325.00,749.15 325.00,749.15
             351.69,737.69 374.04,731.90 403.00,729.91
             403.00,729.91 413.00,729.21 413.00,729.21
             415.65,728.97 421.68,728.85 424.00,729.21
             424.00,729.21 445.00,739.75 445.00,739.75
             445.00,739.75 479.00,755.72 479.00,755.72
             502.30,765.75 538.65,775.96 564.00,776.00
             564.00,776.00 578.00,776.00 578.00,776.00
             596.64,775.78 615.06,770.40 632.00,763.00
             632.00,763.00 651.00,753.05 651.00,753.05
             652.57,752.50 653.53,752.72 655.00,753.05
             659.25,754.84 670.91,763.16 675.00,766.15
             693.02,779.30 708.25,794.15 721.63,812.00
             725.37,817.00 728.30,821.46 731.22,827.00
             732.45,829.34 734.78,834.87 736.49,836.42
             738.76,838.45 755.76,841.57 760.00,842.63
             777.72,847.06 790.28,852.31 807.00,859.00
             804.48,864.32 800.12,867.88 796.00,872.00
             796.00,872.00 772.00,895.00 772.00,895.00
             768.86,898.13 762.24,905.91 758.00,906.51
             755.44,906.88 745.32,903.67 742.00,902.88
             733.92,900.97 718.06,898.10 710.00,898.00
             703.73,897.93 700.29,898.24 694.00,896.51
             682.05,893.23 673.06,883.24 671.24,871.00
             669.64,859.48 675.48,857.01 671.24,850.00
             667.20,843.53 654.02,830.73 648.00,825.58
             627.76,808.25 614.36,799.04 587.00,799.00
             587.00,799.00 531.00,799.00 531.00,799.00
             526.40,798.99 520.30,798.68 516.00,797.01
             506.35,793.28 507.19,789.69 494.00,790.01
             484.78,790.24 484.07,793.71 477.00,793.94
             477.00,793.94 459.00,792.17 459.00,792.17
             459.00,792.17 417.00,790.00 417.00,790.00
             396.64,790.03 376.70,795.99 358.00,803.60
             358.00,803.60 331.00,815.00 331.00,815.00
             327.16,807.69 325.33,802.97 323.15,795.00
             320.97,787.05 320.37,780.62 314.67,774.04
             309.03,767.52 303.58,765.84 296.00,763.00 Z
           M 265.00,776.00
           C 262.13,782.67 260.19,785.42 260.01,793.00
             259.85,800.31 261.43,807.01 263.43,814.00
             264.11,816.39 266.17,821.93 266.21,824.00
             266.24,825.56 259.86,840.98 258.73,842.49
             256.85,844.99 250.07,846.64 247.00,847.67
             237.81,850.73 228.68,853.91 220.00,858.25
             216.98,859.76 210.30,864.23 207.18,863.30
             203.81,862.29 200.31,855.05 198.76,852.00
             193.26,841.19 189.45,829.99 187.43,818.00
             186.98,815.31 185.57,807.62 186.58,805.39
             188.00,802.23 202.25,796.85 206.00,795.42
             206.00,795.42 265.00,776.00 265.00,776.00 Z" />
  <path id="7"
        fill="#e94e1a"
        d="M 186.00,804.00
           C 186.00,804.00 184.00,778.00 184.00,778.00
             184.00,778.00 182.09,746.00 182.09,746.00
             182.09,746.00 180.83,724.00 180.83,724.00
             180.83,724.00 176.83,676.00 176.83,676.00
             176.83,676.00 173.91,642.00 173.91,642.00
             173.91,642.00 173.00,630.00 173.00,630.00
             173.00,630.00 173.00,599.00 173.00,599.00
             173.03,581.68 177.63,551.99 181.87,535.00
             186.84,515.13 191.62,501.10 198.68,482.00
             200.08,478.23 206.58,461.68 208.70,459.56
             210.86,457.40 215.99,456.83 219.00,456.12
             219.00,456.12 244.00,450.61 244.00,450.61
             244.00,450.61 304.00,439.92 304.00,439.92
             304.00,439.92 344.00,435.00 344.00,435.00
             344.00,435.00 361.00,434.00 361.00,434.00
             361.00,434.00 374.00,434.00 374.00,434.00
             374.00,434.00 389.00,433.00 389.00,433.00
             412.33,432.73 434.99,426.38 458.00,423.28
             466.63,422.12 475.29,421.04 484.00,421.00
             484.00,421.00 500.00,420.01 500.00,420.01
             500.00,420.01 516.00,421.00 516.00,421.00
             531.90,421.19 556.54,426.31 572.00,430.71
             572.00,430.71 596.96,438.90 596.96,438.90
             601.75,439.03 602.41,433.04 606.53,428.09
             611.60,421.99 621.02,417.69 629.00,418.32
             636.79,418.94 653.27,424.69 661.00,427.58
             661.00,427.58 702.00,443.58 702.00,443.58
             759.68,468.19 814.01,499.91 867.00,533.32
             867.00,533.32 916.00,564.98 916.00,564.98
             924.61,570.94 939.38,581.41 946.00,589.00
             938.04,594.40 932.30,601.29 930.47,611.00
             926.99,629.44 939.65,648.18 959.00,648.96
             973.82,649.56 976.85,642.78 985.00,639.00
             986.66,641.50 989.45,644.84 988.89,648.00
             988.37,650.91 982.00,659.14 980.02,662.00
             980.02,662.00 954.35,697.00 954.35,697.00
             933.18,724.48 911.04,751.22 887.83,777.00
             887.83,777.00 866.91,800.00 866.91,800.00
             866.91,800.00 854.42,813.00 854.42,813.00
             854.42,813.00 822.00,846.00 822.00,846.00
             819.32,848.68 811.04,857.72 808.00,858.59
             805.12,859.42 798.83,856.06 796.00,854.85
             796.00,854.85 770.00,845.66 770.00,845.66
             770.00,845.66 748.00,840.00 748.00,840.00
             745.37,839.46 738.38,838.42 736.49,837.02
             736.49,837.02 727.19,821.00 727.19,821.00
             721.40,811.66 713.21,802.16 705.83,794.00
             697.82,785.14 681.89,771.79 672.00,764.71
             672.00,764.71 652.00,751.00 652.00,751.00
             660.77,744.56 670.29,735.65 676.87,727.00
             694.13,704.30 706.96,671.80 707.00,643.00
             707.00,643.00 707.00,618.00 707.00,618.00
             707.00,618.00 699.00,553.00 699.00,553.00
             715.23,547.33 712.36,544.99 722.18,535.29
             725.12,532.38 729.54,529.33 733.00,527.00
             730.66,525.99 726.50,524.39 724.95,522.37
             723.51,520.46 722.70,513.84 721.78,511.00
             719.70,504.59 714.80,498.89 709.00,495.53
             700.95,490.86 671.04,480.01 661.00,476.67
             618.22,462.41 573.12,453.93 528.00,454.00
             528.00,454.00 516.00,454.91 516.00,454.91
             492.25,456.53 476.81,457.90 455.00,469.11
             446.15,473.66 439.80,477.79 432.00,484.00
             425.57,489.13 423.46,493.21 415.00,494.00
             414.91,504.08 412.64,515.65 404.91,522.79
             400.44,526.91 395.96,527.35 392.39,531.21
             389.21,534.64 382.90,549.06 380.86,554.00
             368.15,584.75 363.99,625.49 371.35,658.00
             373.95,669.50 378.31,683.06 384.70,693.00
             389.98,701.21 398.38,710.27 406.00,716.33
             406.00,716.33 423.00,729.00 423.00,729.00
             401.65,729.00 378.58,731.56 358.00,737.43
             336.44,743.58 316.20,753.47 296.00,763.00
             303.42,765.17 309.25,767.04 314.67,773.09
             320.53,779.63 321.14,786.99 323.43,795.00
             323.43,795.00 331.00,815.00 331.00,815.00
             358.84,803.19 384.90,790.05 416.00,790.00
             416.00,790.00 449.00,791.17 449.00,791.17
             449.00,791.17 470.00,793.17 470.00,793.17
             470.00,793.17 476.00,793.87 476.00,793.87
             482.89,793.95 483.29,790.13 494.00,790.00
             509.99,789.82 508.75,794.37 518.00,797.37
             522.19,798.73 527.61,798.99 532.00,799.00
             532.00,799.00 588.00,799.00 588.00,799.00
             616.84,799.04 634.79,811.29 655.00,831.01
             659.48,835.39 669.87,845.64 672.39,851.00
             674.75,856.02 671.42,859.38 671.10,866.00
             670.73,873.77 674.62,882.37 680.17,887.70
             693.20,900.21 706.78,897.19 723.00,899.15
             723.00,899.15 759.00,907.00 759.00,907.00
             753.27,914.36 728.46,934.83 720.00,941.60
             716.52,944.39 709.68,951.18 705.00,950.03
             702.79,949.49 688.85,940.52 686.00,938.66
             686.00,938.66 636.00,902.21 636.00,902.21
             614.52,889.41 592.92,890.72 569.00,891.00
             569.00,891.00 554.00,892.00 554.00,892.00
             528.56,892.04 503.31,891.36 478.00,888.83
             478.00,888.83 401.00,878.17 401.00,878.17
             401.00,878.17 362.00,877.00 362.00,877.00
             337.76,877.04 310.26,884.81 289.00,896.31
             289.00,896.31 266.00,910.34 266.00,910.34
             263.58,911.99 257.59,916.76 255.00,916.99
             250.55,917.37 243.37,908.22 240.58,905.00
             232.05,895.18 211.33,875.14 207.00,864.00
             207.00,864.00 229.00,853.80 229.00,853.80
             229.00,853.80 248.00,847.00 248.00,847.00
             250.39,846.20 255.75,844.68 257.49,843.16
             258.88,841.95 265.40,827.01 265.67,825.00
             266.04,822.31 262.72,812.52 261.88,809.00
             258.91,796.49 258.52,787.45 265.00,776.00
             265.00,776.00 216.00,792.05 216.00,792.05
             216.00,792.05 186.00,804.00 186.00,804.00 Z
           M 83.00,1032.00
           C 83.00,1032.00 81.11,1019.00 81.11,1019.00
             81.11,1019.00 70.35,973.00 70.35,973.00
             57.06,915.08 45.09,856.19 39.17,797.00
             39.17,797.00 36.00,762.00 36.00,762.00
             36.00,762.00 36.00,753.00 36.00,753.00
             36.00,753.00 35.00,738.00 35.00,738.00
             35.00,738.00 34.04,727.00 34.04,727.00
             34.04,727.00 30.72,685.00 30.72,685.00
             27.88,662.21 23.39,643.70 16.00,622.00
             9.78,603.75 0.23,579.26 0.00,560.00
             -0.15,546.44 -0.55,538.31 3.44,525.00
             5.19,519.13 9.31,510.27 12.45,505.00
             16.87,497.58 23.13,489.93 30.00,484.68
             48.17,470.81 82.32,463.27 105.00,462.96
             105.00,462.96 117.00,462.96 117.00,462.96
             117.00,462.96 128.00,462.00 128.00,462.00
             128.00,462.00 138.00,462.00 138.00,462.00
             136.96,468.63 132.32,479.13 130.00,486.00
             130.00,486.00 119.37,524.00 119.37,524.00
             114.27,544.69 111.37,565.78 109.91,587.00
             109.91,587.00 109.00,599.00 109.00,599.00
             109.00,599.00 109.00,626.00 109.00,626.00
             109.00,626.00 109.96,637.00 109.96,637.00
             109.96,637.00 116.83,709.00 116.83,709.00
             119.13,731.94 120.96,754.94 121.00,778.00
             121.00,778.00 122.00,801.00 122.00,801.00
             122.00,801.00 119.00,800.00 119.00,800.00
             119.00,800.00 121.00,816.00 121.00,816.00
             121.00,816.00 123.00,810.00 123.00,810.00
             123.00,810.00 125.43,824.00 125.43,824.00
             125.43,824.00 129.23,842.00 129.23,842.00
             132.70,856.66 139.13,872.77 146.31,886.00
             156.58,904.95 173.31,924.57 187.42,941.00
             187.42,941.00 203.00,959.00 203.00,959.00
             169.34,982.83 152.29,986.68 120.00,1005.42
             112.54,1009.76 105.86,1013.96 99.00,1019.23
             99.00,1019.23 83.00,1032.00 83.00,1032.00 Z
           M 509.00,517.42
           C 533.66,514.41 577.19,520.87 602.00,526.00
             602.00,526.00 623.00,530.88 623.00,530.88
             625.48,531.54 630.43,532.60 632.07,534.56
             633.81,536.65 634.72,545.82 635.25,549.00
             635.25,549.00 641.13,585.00 641.13,585.00
             646.68,624.85 651.90,674.63 614.00,700.96
             608.52,704.77 602.40,707.65 596.00,709.56
             583.26,713.37 575.97,713.15 563.00,713.00
             532.56,712.64 497.82,695.62 471.00,682.25
             459.49,676.50 444.43,670.28 437.47,659.00
             428.51,644.49 429.42,624.22 431.73,608.00
             436.04,577.83 453.11,540.20 481.00,525.32
             490.72,520.14 498.41,519.02 509.00,517.42 Z
           M 1017.00,718.00
           C 1019.66,721.30 1019.94,724.33 1022.09,728.00
             1022.09,728.00 1036.29,750.00 1036.29,750.00
             1054.12,777.29 1072.58,806.12 1096.00,828.99
             1104.24,837.03 1124.20,853.25 1135.00,856.56
             1140.42,858.22 1143.50,858.00 1149.00,858.00
             1149.00,869.74 1147.96,879.62 1144.85,891.00
             1139.42,910.84 1129.03,929.04 1116.20,945.00
             1074.87,996.41 1019.66,1016.94 963.00,1045.27
             963.00,1045.27 925.00,1066.42 925.00,1066.42
             925.00,1066.42 907.00,1078.00 907.00,1078.00
             905.59,1075.01 904.28,1071.69 902.36,1069.00
             894.98,1058.64 874.44,1048.73 863.00,1042.01
             863.00,1042.01 765.00,985.00 765.00,985.00
             765.00,985.00 793.00,960.72 793.00,960.72
             793.00,960.72 838.00,918.96 838.00,918.96
             893.86,865.53 972.48,780.69 1017.00,718.00 Z" />
  <path id="6"
        fill="#e6007e"
        d="M 1184.00,343.00
           C 1184.00,343.00 1181.04,376.00 1181.04,376.00
             1181.04,376.00 1181.04,384.00 1181.04,384.00
             1181.04,384.00 1180.00,397.00 1180.00,397.00
             1180.00,397.00 1179.00,420.00 1179.00,420.00
             1179.00,420.00 1178.00,437.00 1178.00,437.00
             1178.00,437.00 1178.00,509.00 1178.00,509.00
             1178.00,509.00 1178.96,521.00 1178.96,521.00
             1178.96,521.00 1178.96,534.00 1178.96,534.00
             1178.96,534.00 1179.98,544.00 1179.98,544.00
             1179.98,544.00 1179.98,554.00 1179.98,554.00
             1179.98,554.00 1180.91,562.00 1180.91,562.00
             1180.91,562.00 1183.46,595.00 1183.46,595.00
             1183.46,595.00 1191.83,625.00 1191.83,625.00
             1191.83,625.00 1189.75,650.00 1189.75,650.00
             1189.75,650.00 1193.58,677.00 1193.58,677.00
             1193.58,677.00 1203.20,732.00 1203.20,732.00
             1205.74,744.71 1211.26,761.65 1207.56,774.00
             1205.17,781.98 1200.17,787.57 1193.00,791.66
             1188.50,794.23 1180.80,796.15 1178.74,801.09
             1177.96,802.96 1177.13,813.37 1176.92,816.00
             1176.04,826.92 1175.29,838.27 1167.79,847.00
             1161.28,854.57 1154.78,857.51 1145.00,857.07
             1142.00,856.94 1138.95,857.15 1136.00,856.47
             1128.92,854.85 1116.83,846.54 1111.00,841.99
             1079.77,817.56 1064.44,790.55 1042.65,759.00
             1042.65,759.00 1028.00,737.00 1028.00,737.00
             1024.67,732.00 1020.38,726.00 1019.33,720.00
             1017.53,709.76 1021.36,700.97 1029.00,694.18
             1033.10,690.54 1036.96,689.17 1040.68,684.96
             1040.68,684.96 1061.58,654.00 1061.58,654.00
             1086.78,613.73 1108.61,575.55 1127.86,532.00
             1139.47,505.73 1149.06,478.98 1142.58,450.00
             1139.61,436.74 1133.31,425.34 1124.56,415.00
             1124.56,415.00 1112.25,402.71 1112.25,402.71
             1112.25,402.71 1106.75,390.00 1106.75,390.00
             1106.75,390.00 1087.19,354.00 1087.19,354.00
             1062.79,314.09 1040.07,289.64 1002.00,262.42
             994.36,256.96 965.13,236.97 958.00,234.07
             958.00,234.07 932.00,230.48 932.00,230.48
             917.00,226.86 908.83,213.76 909.00,199.00
             909.18,183.67 921.69,170.46 937.00,169.19
             937.00,169.19 958.00,170.90 958.00,170.90
             958.00,170.90 973.00,167.61 973.00,167.61
             982.51,165.82 1001.68,163.01 1011.00,163.00
             1011.00,163.00 1016.00,163.00 1016.00,163.00
             1016.00,163.00 1038.00,163.00 1038.00,163.00
             1065.14,163.32 1081.07,176.06 1092.74,200.00
             1095.42,205.49 1101.59,223.58 1104.42,226.67
             1106.81,229.30 1120.40,236.62 1124.00,237.78
             1124.00,237.78 1134.00,240.00 1134.00,240.00
             1134.00,240.00 1141.20,202.00 1141.20,202.00
             1142.55,195.24 1144.07,186.50 1148.39,181.00
             1163.58,161.68 1197.81,172.00 1203.32,196.00
             1205.24,204.35 1202.83,212.82 1201.20,221.00
             1201.20,221.00 1195.75,253.00 1195.75,253.00
             1195.07,257.10 1192.16,270.70 1193.45,273.90
             1194.86,277.40 1205.33,282.11 1209.00,284.14
             1219.42,289.92 1232.58,294.30 1236.07,307.00
             1237.09,310.70 1237.13,315.17 1236.96,319.00
             1236.22,335.43 1221.58,349.92 1205.00,349.92
             1197.34,349.92 1190.50,346.70 1184.00,343.00 Z
           M 210.00,457.00
           C 211.74,450.90 217.68,440.15 220.75,434.00
             230.62,414.27 242.14,395.60 253.95,377.00
             253.95,377.00 267.33,357.00 267.33,357.00
             269.56,353.69 273.08,348.01 276.17,345.70
             278.72,343.79 292.20,339.27 296.00,338.00
             296.00,338.00 328.00,326.00 328.00,326.00
             328.00,326.00 363.00,310.74 363.00,310.74
             363.00,310.74 388.00,298.70 388.00,298.70
             397.17,295.47 406.39,296.46 410.00,295.59
             410.00,295.59 423.00,289.77 423.00,289.77
             423.00,289.77 462.00,280.58 462.00,280.58
             462.00,280.58 477.00,275.77 477.00,275.77
             477.00,275.77 488.00,272.98 488.00,272.98
             503.84,268.07 523.17,260.15 538.00,252.73
             568.55,237.46 580.13,224.64 617.00,215.88
             635.32,211.53 654.22,209.97 673.00,210.00
             673.00,210.00 685.00,210.91 685.00,210.91
             692.65,211.43 700.46,211.09 708.00,212.90
             713.75,214.27 719.19,216.42 723.91,220.04
             727.55,222.83 728.86,225.79 731.18,226.65
             733.60,227.56 736.53,225.93 739.00,225.61
             743.35,225.04 748.90,227.81 753.00,229.32
             753.00,229.32 780.00,238.58 780.00,238.58
             808.96,246.63 840.86,248.04 868.00,259.42
             868.00,259.42 917.00,284.70 917.00,284.70
             963.15,310.03 994.99,330.26 1025.26,375.00
             1031.65,384.45 1045.56,407.83 1049.65,418.00
             1051.80,423.35 1050.29,427.47 1053.76,436.00
             1055.69,440.73 1058.89,445.18 1063.01,448.21
             1068.42,452.19 1072.75,452.41 1077.03,459.00
             1081.70,466.19 1081.64,474.90 1080.00,483.00
             1076.91,498.23 1070.18,511.41 1063.00,525.00
             1055.78,520.60 1049.81,517.55 1041.00,518.09
             1027.36,518.93 1014.00,530.58 1011.47,544.00
             1011.47,544.00 1010.44,556.72 1010.44,556.72
             1009.05,560.32 1003.15,564.22 1000.10,573.00
             996.89,582.24 999.70,585.28 998.42,588.72
             997.43,591.35 990.86,597.31 989.38,601.72
             987.99,605.87 991.71,609.02 990.91,620.00
             989.97,632.95 982.10,644.47 969.00,647.47
             966.12,648.13 962.01,648.03 959.00,648.00
             945.37,647.84 934.42,639.60 931.52,626.00
             930.85,622.86 930.97,618.29 931.00,615.00
             931.14,603.17 936.26,594.27 947.00,589.00
             947.00,589.00 933.00,577.45 933.00,577.45
             933.00,577.45 913.00,562.72 913.00,562.72
             913.00,562.72 883.00,543.31 883.00,543.31
             883.00,543.31 810.00,498.58 810.00,498.58
             773.21,477.22 735.48,456.77 696.00,440.80
             696.00,440.80 659.00,426.58 659.00,426.58
             653.65,424.58 635.88,418.48 631.00,418.09
             616.89,416.96 603.94,426.52 600.00,440.00
             582.65,433.98 569.36,428.75 551.00,425.00
             526.28,419.96 510.75,419.96 486.00,420.00
             466.60,420.03 437.97,426.48 418.00,429.58
             418.00,429.58 393.00,432.09 393.00,432.09
             393.00,432.09 381.00,433.00 381.00,433.00
             354.86,433.04 328.81,435.10 303.00,439.43
             303.00,439.43 242.00,451.20 242.00,451.20
             242.00,451.20 210.00,457.00 210.00,457.00 Z
           M 1093.00,350.00
           C 1093.05,353.04 1094.57,353.46 1097.00,355.00
             1097.00,355.00 1093.00,350.00 1093.00,350.00 Z
           M 181.00,374.00
           C 179.16,379.81 169.78,395.58 166.31,402.00
             166.31,402.00 147.15,442.00 147.15,442.00
             145.79,445.16 140.20,459.60 138.30,461.01
             136.62,462.26 133.06,462.00 131.00,462.00
             111.56,462.03 95.32,462.01 76.00,465.80
             67.29,467.51 56.09,470.85 48.00,474.44
             44.79,475.86 38.54,480.32 35.29,479.32
             30.90,477.98 27.28,469.13 26.16,465.00
             23.29,454.40 25.43,440.68 32.39,432.01
             34.62,429.24 40.05,424.72 43.00,422.51
             58.75,410.70 78.79,406.65 97.00,400.31
             97.00,400.31 153.00,381.98 153.00,381.98
             153.00,381.98 181.00,374.00 181.00,374.00 Z" />
  <path id="5"
        fill="#c4076d"
        d="M 1059.00,166.00
           C 1076.24,166.79 1103.25,176.83 1119.00,184.22
             1126.52,187.75 1134.46,190.74 1141.00,196.00
             1141.00,196.00 1143.00,194.00 1143.00,194.00
             1143.00,194.00 1135.00,240.00 1135.00,240.00
             1123.36,239.06 1121.88,237.67 1112.00,232.31
             1109.09,230.73 1105.81,229.45 1103.70,226.79
             1101.64,224.20 1098.84,215.58 1097.40,212.00
             1093.65,202.74 1091.26,197.41 1085.65,189.00
             1079.87,180.34 1074.98,175.46 1066.00,170.09
             1066.00,170.09 1059.00,166.00 1059.00,166.00 Z
           M 1199.00,229.00
           C 1212.05,244.66 1236.01,245.19 1234.96,272.00
             1234.85,274.83 1234.26,278.27 1233.51,281.00
             1232.12,286.08 1229.83,289.65 1227.00,294.00
             1227.00,294.00 1201.00,280.42 1201.00,280.42
             1201.00,280.42 1192.66,274.61 1192.66,274.61
             1192.66,274.61 1194.08,261.00 1194.08,261.00
             1194.08,261.00 1199.00,229.00 1199.00,229.00 Z" />
  <path id="4"
        fill="#a2185b"
        d="M 530.00,137.03
           C 530.00,137.03 580.00,114.69 580.00,114.69
             580.00,114.69 590.00,109.72 590.00,109.72
             596.13,107.17 605.26,108.37 614.00,104.00
             621.22,100.39 625.27,94.81 628.17,92.92
             628.17,92.92 661.00,79.42 661.00,79.42
             679.07,72.55 697.21,66.01 716.00,61.37
             716.00,61.37 743.86,56.41 743.86,56.41
             747.13,54.94 747.31,50.98 748.47,48.00
             750.10,43.82 752.74,39.34 756.09,36.33
             765.59,27.80 774.18,28.02 786.00,28.00
             786.00,28.00 803.00,27.00 803.00,27.00
             803.00,27.00 852.00,27.00 852.00,27.00
             852.00,27.00 869.00,28.00 869.00,28.00
             896.46,28.04 938.51,31.33 966.00,34.72
             966.00,34.72 1026.00,42.78 1026.00,42.78
             1032.61,44.77 1037.81,50.07 1041.10,56.00
             1042.80,59.09 1043.69,63.19 1046.27,65.49
             1048.73,67.68 1068.53,74.05 1073.00,75.48
             1073.00,75.48 1094.00,79.08 1094.00,79.08
             1102.69,80.61 1116.88,84.23 1125.00,87.45
             1152.26,98.26 1174.20,117.14 1200.00,130.68
             1215.43,138.78 1234.89,138.78 1241.25,158.00
             1242.23,160.95 1242.84,163.90 1242.96,167.00
             1243.38,177.26 1239.02,183.09 1239.47,189.00
             1240.07,196.86 1240.16,199.33 1237.29,207.00
             1237.29,207.00 1233.32,215.42 1233.32,215.42
             1233.32,215.42 1233.96,223.00 1233.96,223.00
             1234.26,229.45 1234.03,235.13 1231.01,241.00
             1229.45,244.01 1226.95,247.98 1223.00,246.92
             1223.00,246.92 1211.00,239.66 1211.00,239.66
             1208.72,238.17 1203.06,234.64 1201.61,232.68
             1199.22,229.47 1200.92,223.70 1201.61,220.00
             1203.06,212.25 1205.44,202.82 1203.21,195.00
             1197.94,176.44 1173.14,164.12 1156.00,174.48
             1146.32,180.33 1145.23,186.31 1142.00,196.00
             1142.00,196.00 1092.00,173.67 1092.00,173.67
             1080.81,169.99 1069.59,167.65 1058.00,165.72
             1058.00,165.72 1044.00,163.17 1044.00,163.17
             1016.50,160.50 988.75,163.56 962.00,170.24
             954.43,172.13 944.07,168.22 936.00,169.18
             922.09,170.85 910.52,183.34 908.83,197.00
             908.20,200.33 908.85,203.66 908.83,207.00
             908.83,207.00 872.00,193.88 872.00,193.88
             872.00,193.88 805.00,180.28 805.00,180.28
             805.00,180.28 733.00,155.02 733.00,155.02
             713.13,148.85 692.54,144.61 672.00,141.42
             658.05,139.26 630.63,136.02 617.00,136.00
             617.00,136.00 600.00,136.00 600.00,136.00
             600.00,136.00 591.00,135.34 591.00,135.34
             591.00,135.34 581.00,136.00 581.00,136.00
             581.00,136.00 562.00,136.00 562.00,136.00
             562.00,136.00 552.00,137.03 552.00,137.03
             552.00,137.03 543.00,137.03 543.00,137.03
             538.29,137.62 534.62,138.83 530.00,137.03 Z
           M 340.00,185.00
           C 321.58,193.87 307.25,207.75 293.00,222.00
             261.75,253.25 237.81,290.11 212.42,326.00
             212.42,326.00 191.68,358.00 191.68,358.00
             189.80,360.98 184.51,370.42 182.39,372.19
             180.27,373.96 175.73,374.90 173.00,375.72
             173.00,375.72 156.00,380.86 156.00,380.86
             156.00,380.86 103.00,398.00 103.00,398.00
             87.24,403.25 71.06,407.76 56.00,414.89
             51.95,416.80 46.59,420.20 43.00,422.90
             40.81,424.55 37.56,427.58 35.00,428.24
             30.50,429.39 22.47,425.34 19.00,422.61
             14.95,419.44 11.62,415.58 9.27,411.00
             3.25,399.23 3.39,384.98 13.18,375.18
             17.65,370.72 26.35,366.75 32.00,363.69
             32.00,363.69 65.00,345.42 65.00,345.42
             65.00,345.42 84.00,334.44 84.00,334.44
             86.98,332.77 92.29,330.66 94.49,328.39
             96.48,326.34 97.43,322.66 98.90,320.00
             101.35,315.59 103.92,313.10 108.00,310.21
             108.00,310.21 157.00,283.21 157.00,283.21
             157.00,283.21 173.83,267.96 173.83,267.96
             177.60,263.98 179.32,261.14 184.00,257.53
             184.00,257.53 192.00,252.41 192.00,252.41
             214.60,237.12 237.51,225.57 262.00,213.74
             276.72,206.64 302.48,196.18 318.00,191.00
             323.30,189.23 335.12,184.02 340.00,185.00 Z
           M 277.00,344.00
           C 281.54,335.16 295.08,318.68 301.63,310.00
             321.73,283.34 346.40,253.56 376.00,237.31
             401.66,223.22 437.15,215.78 466.00,210.58
             491.90,205.91 517.78,202.71 544.00,200.91
             544.00,200.91 554.00,200.00 554.00,200.00
             554.00,200.00 574.00,199.00 574.00,199.00
             574.00,199.00 607.00,199.00 607.00,199.00
             607.00,199.00 619.00,200.00 619.00,200.00
             619.00,200.00 628.00,200.00 628.00,200.00
             628.00,200.00 660.00,203.73 660.00,203.73
             667.69,204.84 688.92,207.89 695.00,211.00
             695.00,211.00 680.00,210.00 680.00,210.00
             680.00,210.00 661.00,210.00 661.00,210.00
             643.04,210.03 619.04,214.25 602.00,220.00
             578.25,228.02 565.15,238.25 544.00,249.69
             544.00,249.69 514.00,263.40 514.00,263.40
             514.00,263.40 484.00,273.96 484.00,273.96
             484.00,273.96 477.58,275.25 477.58,275.25
             477.58,275.25 463.00,280.12 463.00,280.12
             463.00,280.12 426.00,288.88 426.00,288.88
             416.79,291.35 414.41,294.51 410.00,295.59
             404.85,296.84 399.65,294.57 388.00,298.70
             388.00,298.70 361.00,311.69 361.00,311.69
             342.79,320.05 295.12,339.87 277.00,344.00 Z" />
  <path id="3"
        fill="#662483"
        d="M 377.00,63.00
           C 371.30,40.39 381.59,19.30 407.00,19.00
             407.00,19.00 435.00,19.00 435.00,19.00
             435.00,19.00 451.00,18.00 451.00,18.00
             451.00,18.00 477.00,18.00 477.00,18.00
             477.00,18.00 493.00,17.00 493.00,17.00
             493.00,17.00 531.00,17.00 531.00,17.00
             531.00,17.00 548.00,16.09 548.00,16.09
             548.00,16.09 588.00,16.09 588.00,16.09
             598.44,15.87 599.68,13.59 612.00,16.09
             618.34,17.67 622.08,21.27 627.00,21.37
             627.00,21.37 645.00,19.16 645.00,19.16
             645.00,19.16 662.00,18.00 662.00,18.00
             662.00,18.00 679.00,17.00 679.00,17.00
             679.00,17.00 722.00,12.84 722.00,12.84
             736.76,11.26 749.37,7.95 760.53,21.04
             763.15,24.11 764.37,26.39 766.00,30.00
             759.39,33.99 754.61,37.16 750.48,44.00
             746.83,50.05 747.56,53.80 744.57,55.83
             742.70,57.09 739.26,56.99 737.00,57.28
             737.00,57.28 720.00,60.21 720.00,60.21
             720.00,60.21 674.00,74.42 674.00,74.42
             674.00,74.42 630.00,92.27 630.00,92.27
             624.38,95.32 621.77,100.74 614.00,104.05
             607.51,106.81 600.62,106.83 594.00,108.55
             594.00,108.55 573.00,117.86 573.00,117.86
             573.00,117.86 527.00,138.37 527.00,138.37
             527.00,138.37 489.00,143.27 489.00,143.27
             462.83,147.04 436.73,151.77 411.00,157.88
             396.41,161.35 379.90,166.60 366.00,172.20
             366.00,172.20 343.00,182.31 343.00,182.31
             343.00,182.31 312.00,193.05 312.00,193.05
             284.11,203.24 257.23,215.37 231.00,229.22
             218.15,236.00 206.02,243.28 194.00,251.41
             194.00,251.41 186.00,256.53 186.00,256.53
             186.00,256.53 164.00,277.83 164.00,277.83
             150.71,289.79 122.73,299.11 108.00,310.53
             104.79,313.02 101.33,316.52 99.21,320.00
             96.11,325.09 95.80,329.92 89.00,331.84
             85.00,332.97 79.58,330.98 76.00,329.19
             63.74,323.06 57.70,313.58 58.01,300.00
             58.47,280.32 73.21,274.12 86.00,263.13
             89.09,260.48 95.28,255.70 96.87,252.00
             97.48,249.93 96.94,245.50 96.87,243.00
             98.08,217.54 122.06,216.47 137.00,203.79
             149.89,192.84 154.11,177.47 174.00,177.01
             174.00,177.01 190.01,178.52 190.01,178.52
             192.29,177.37 193.32,172.35 194.34,170.00
             196.63,164.70 199.22,161.23 204.00,157.90
             211.49,152.68 232.83,143.23 242.00,139.28
             245.56,137.75 256.34,134.05 258.40,131.59
             260.22,129.42 260.32,123.18 261.02,120.00
             262.38,113.80 265.19,108.53 270.04,104.33
             281.35,94.52 288.22,100.54 298.00,96.20
             298.00,96.20 316.00,87.31 316.00,87.31
             316.00,87.31 352.00,71.80 352.00,71.80
             358.91,69.04 370.01,64.10 377.00,63.00 Z" />
  <path id="2"
        fill="#4d2583"
        d="M 338.00,43.00
           C 335.08,30.74 343.25,15.84 355.00,11.34
             358.72,9.91 362.11,10.01 366.00,10.00
             366.00,10.00 424.00,13.92 424.00,13.92
             431.36,14.50 449.38,15.29 455.00,19.00
             455.00,19.00 412.00,19.00 412.00,19.00
             401.19,19.13 390.61,21.41 383.33,30.01
             378.51,35.70 376.08,42.60 376.00,50.00
             375.95,54.77 378.29,61.55 373.87,64.09
             373.87,64.09 339.00,78.01 339.00,78.01
             339.00,78.01 298.00,96.65 298.00,96.65
             291.00,99.47 283.41,96.11 273.01,103.11
             266.98,107.17 263.09,113.98 261.51,121.00
             260.02,127.61 261.99,130.31 258.68,132.93
             258.68,132.93 243.00,139.72 243.00,139.72
             234.17,143.53 214.49,152.28 207.00,157.09
             202.47,160.00 198.64,163.19 196.04,168.00
             193.54,172.65 193.58,177.26 190.70,178.94
             186.98,181.11 181.44,176.57 174.00,177.19
             166.20,177.83 157.56,182.40 152.30,188.09
             145.64,195.29 143.00,203.08 133.00,207.00
             130.04,200.72 129.45,195.80 130.81,189.00
             134.82,168.92 157.44,157.70 173.00,146.58
             173.00,146.58 209.00,122.42 209.00,122.42
             209.00,122.42 230.86,108.91 230.86,108.91
             234.42,106.05 234.24,103.06 235.70,99.00
             237.29,94.55 239.54,90.52 243.09,87.33
             247.78,83.11 267.42,73.04 274.00,69.75
             286.42,63.54 325.90,45.76 338.00,43.00 Z" />
  <path id="1"
        fill="#312783"
        d="M 326.00,0.44
           C 333.40,-0.50 340.72,0.91 347.00,5.11
             349.26,6.62 353.15,9.49 351.83,12.68
             351.20,14.20 347.67,16.76 346.30,18.18
             343.87,20.72 341.85,23.77 340.47,27.00
             336.30,36.73 339.41,40.19 336.40,43.16
             335.11,44.44 329.93,46.23 328.00,47.00
             328.00,47.00 308.00,55.01 308.00,55.01
             292.94,61.23 263.42,75.12 250.00,83.47
             244.71,86.75 240.04,91.35 237.33,97.00
             235.78,100.22 234.43,106.22 232.44,108.39
             232.44,108.39 216.00,118.95 216.00,118.95
             216.00,118.95 182.00,141.28 182.00,141.28
             178.88,143.46 164.37,154.18 162.00,154.60
             158.78,155.17 156.11,152.19 154.21,149.99
             149.63,144.72 146.66,136.00 147.09,129.00
             148.11,112.44 160.09,103.87 172.00,94.58
             172.00,94.58 187.00,82.58 187.00,82.58
             225.14,51.31 276.50,9.58 326.00,0.44 Z" />
</svg>
