<?xml version="1.0" encoding="UTF-8" standalone="no"?>
<!DOCTYPE svg PUBLIC "-//W3C//DTD SVG 20010904//EN"
              "http://www.w3.org/TR/2001/REC-SVG-20010904/DTD/svg10.dtd">

<svg xmlns="http://www.w3.org/2000/svg"
     width="100.33mm" height="101.431mm"
     viewBox="0 0 1185 1198">
  <path id="Wit"
        fill="White"
        d="M 128.02,827.74
           C 131.52,826.89 137.92,826.17 139.87,830.23
             141.58,833.77 133.32,846.26 129.82,847.29
             125.87,848.47 123.14,844.25 122.39,841.00
             121.00,834.96 122.62,830.71 128.02,827.74 Z" />
  <path id="Blauw"
        fill="#2f6fb6"
        d="M 338.00,446.00
           C 338.00,446.00 342.51,433.00 342.51,433.00
             342.51,433.00 350.41,387.00 350.41,387.00
             350.41,387.00 363.25,311.00 363.25,311.00
             363.25,311.00 376.41,233.00 376.41,233.00
             376.41,233.00 382.48,196.00 382.48,196.00
             382.78,191.28 380.97,189.68 381.21,185.00
             381.21,185.00 383.00,171.00 383.00,171.00
             383.00,171.00 383.00,145.00 383.00,145.00
             383.03,128.87 388.45,126.11 390.77,115.00
             390.77,115.00 390.77,88.00 390.77,88.00
             391.12,77.77 393.65,71.48 395.92,62.00
             395.92,62.00 397.00,53.00 397.00,53.00
             397.00,53.00 403.58,38.00 403.58,38.00
             404.68,35.45 409.13,24.17 410.70,22.99
             412.37,21.74 415.96,22.00 418.00,22.00
             418.00,22.00 452.00,22.00 452.00,22.00
             460.87,22.12 462.80,25.21 470.00,29.55
             477.78,34.25 485.30,36.84 488.88,46.00
             492.21,54.50 489.86,56.25 489.62,62.00
             489.62,62.00 490.21,68.00 490.21,68.00
             491.68,88.98 476.22,140.10 476.00,159.00
             476.00,159.00 476.00,165.00 476.00,165.00
             476.02,168.31 476.03,170.74 476.93,174.00
             479.02,181.61 485.72,188.32 494.00,187.89
             497.95,187.69 504.99,185.00 509.00,183.67
             509.00,183.67 539.00,173.33 539.00,173.33
             539.00,173.33 631.00,141.31 631.00,141.31
             631.00,141.31 680.00,124.38 680.00,124.38
             680.00,124.38 692.00,123.54 692.00,123.54
             702.61,121.63 710.42,116.14 722.00,116.00
             734.49,115.86 754.28,118.23 765.00,124.76
             771.04,128.44 777.06,135.36 775.60,143.00
             774.53,148.56 768.00,156.61 764.39,161.00
             760.51,165.71 756.27,169.92 751.00,173.07
             744.55,176.92 741.47,175.87 736.00,179.13
             736.00,179.13 725.00,187.12 725.00,187.12
             717.15,192.87 707.27,198.30 698.00,201.33
             698.00,201.33 651.00,211.35 651.00,211.35
             651.00,211.35 585.00,237.31 585.00,237.31
             585.00,237.31 542.00,250.29 542.00,250.29
             535.70,252.08 528.39,252.89 525.74,260.00
             524.27,263.96 526.57,271.88 527.63,276.00
             531.90,292.66 540.66,306.62 551.21,320.00
             551.21,320.00 596.91,370.00 596.91,370.00
             596.91,370.00 614.83,389.00 614.83,389.00
             614.83,389.00 634.42,409.66 634.42,409.66
             640.17,415.01 642.78,412.49 648.00,416.30
             657.54,423.27 666.64,435.04 672.95,445.00
             672.95,445.00 685.39,467.79 685.39,467.79
             687.66,470.26 689.31,470.52 691.55,472.21
             693.43,473.63 702.29,481.42 703.00,483.10
             704.49,486.89 703.29,491.09 703.00,495.00
             702.55,501.99 701.32,511.40 696.47,516.79
             690.75,523.15 677.13,524.09 669.00,524.00
             651.24,523.79 647.36,511.56 638.12,499.00
             638.12,499.00 618.58,476.01 618.58,476.01
             618.58,476.01 609.00,466.96 609.00,466.96
             609.00,466.96 588.00,446.91 588.00,446.91
             588.00,446.91 561.00,421.29 561.00,421.29
             561.00,421.29 542.21,406.54 542.21,406.54
             542.21,406.54 527.56,387.00 527.56,387.00
             520.22,378.30 511.50,371.20 503.00,363.72
             497.94,359.27 493.86,355.07 490.81,349.00
             486.45,340.31 485.07,327.79 473.00,326.19
             455.25,323.83 451.99,344.30 449.61,357.00
             445.34,379.81 434.03,434.72 434.00,455.00
             434.00,455.00 434.00,468.00 434.00,468.00
             411.82,456.28 395.63,451.87 371.00,447.75
             359.83,445.89 349.28,443.98 338.00,446.00 Z
           M 342.00,467.46
           C 354.74,465.70 373.42,469.98 386.00,473.13
             395.14,475.41 403.31,477.02 412.00,480.86
             418.64,483.80 428.65,489.34 431.98,496.00
             431.98,496.00 434.43,517.00 434.43,517.00
             436.44,530.90 440.25,541.92 445.05,555.00
             456.54,586.30 472.35,616.25 479.58,649.00
             479.58,649.00 488.42,721.00 488.42,721.00
             489.79,729.78 492.32,741.75 495.42,750.00
             495.42,750.00 503.62,769.00 503.62,769.00
             504.87,772.87 503.35,773.98 505.35,779.00
             509.90,790.44 519.27,803.83 529.00,811.32
             536.72,817.27 542.58,817.67 544.93,820.48
             544.93,820.48 555.31,842.00 555.31,842.00
             561.25,854.93 567.86,866.77 570.54,881.00
             572.59,891.88 572.02,902.98 572.00,914.00
             572.00,914.00 571.00,930.00 571.00,930.00
             571.00,930.00 571.00,962.00 571.00,962.00
             571.00,964.89 571.22,968.30 569.83,970.91
             568.12,974.13 564.72,975.58 562.00,981.00
             559.52,985.93 559.58,992.68 560.67,998.00
             560.67,998.00 574.58,1046.00 574.58,1046.00
             574.58,1046.00 580.52,1066.00 580.52,1066.00
             580.52,1066.00 587.00,1091.00 587.00,1091.00
             591.08,1103.09 602.63,1123.05 601.68,1135.00
             600.87,1145.17 595.52,1155.34 590.40,1164.00
             588.52,1167.17 585.93,1172.15 582.90,1174.15
             579.82,1176.17 575.56,1176.07 572.00,1175.99
             561.57,1175.75 543.66,1170.88 539.72,1160.00
             538.61,1156.91 539.04,1148.69 539.00,1145.00
             538.79,1127.64 527.54,1118.64 522.75,1104.00
             520.00,1095.62 519.90,1087.68 520.00,1079.00
             520.00,1079.00 520.68,1068.00 520.68,1068.00
             520.06,1059.74 518.83,1052.31 514.66,1045.00
             510.56,1037.79 504.28,1031.76 501.09,1024.00
             496.38,1012.53 496.88,996.86 484.00,987.64
             475.64,981.65 469.00,983.72 460.00,981.47
             454.35,980.06 452.51,977.15 447.00,975.71
             447.00,975.71 407.00,970.58 407.00,970.58
             355.03,963.23 303.37,954.49 251.00,950.91
             251.00,950.91 225.00,949.00 225.00,949.00
             207.74,948.80 182.70,948.32 168.00,958.10
             162.13,962.01 156.48,968.29 154.10,975.00
             151.85,981.35 153.14,985.07 149.06,991.00
             149.06,991.00 131.37,1014.00 131.37,1014.00
             131.37,1014.00 101.69,1057.00 101.69,1057.00
             101.69,1057.00 88.31,1079.00 88.31,1079.00
             85.42,1084.32 81.96,1092.51 77.68,1096.66
             67.30,1106.72 40.20,1097.30 31.21,1088.90
             15.02,1074.28 22.28,1059.75 31.21,1044.00
             31.21,1044.00 39.34,1030.17 39.34,1030.17
             39.34,1030.17 44.65,1022.99 44.65,1022.99
             44.65,1022.99 54.31,1008.00 54.31,1008.00
             54.31,1008.00 89.42,953.00 89.42,953.00
             89.42,953.00 120.31,905.00 120.31,905.00
             120.31,905.00 181.69,809.00 181.69,809.00
             181.69,809.00 206.69,770.00 206.69,770.00
             210.28,764.43 216.52,756.66 216.67,750.00
             216.85,741.60 221.07,735.37 224.75,728.00
             224.75,728.00 243.85,691.00 243.85,691.00
             252.33,676.25 262.98,669.22 269.69,657.00
             278.91,640.20 275.65,627.22 279.77,614.00
             282.45,605.43 290.89,597.01 295.54,589.00
             301.87,578.08 304.70,561.36 307.42,549.00
             307.42,549.00 320.28,500.00 320.28,500.00
             322.08,493.99 326.37,476.26 330.27,472.53
             333.45,469.51 337.86,468.39 342.00,467.46 Z
           M 989.00,683.00
           C 1001.38,696.99 1018.35,676.63 1023.00,673.58
             1025.03,672.25 1026.67,671.89 1029.00,671.43
             1029.00,671.43 1049.00,668.61 1049.00,668.61
             1054.02,667.06 1054.14,664.64 1061.00,663.44
             1061.00,663.44 1094.00,662.00 1094.00,662.00
             1112.51,662.03 1110.50,670.48 1126.00,676.00
             1123.72,692.87 1120.57,692.34 1116.77,705.00
             1115.92,707.84 1115.25,715.41 1113.40,717.07
             1109.96,720.14 1097.63,719.96 1093.00,720.00
             1076.39,720.18 1078.34,724.46 1064.00,728.57
             1043.53,734.44 1024.53,733.03 1007.00,747.46
             991.36,760.34 984.23,785.29 984.00,805.00
             984.00,805.00 983.00,825.00 983.00,825.00
             983.00,825.00 983.00,856.00 983.00,856.00
             983.00,856.00 982.00,873.00 982.00,873.00
             982.00,873.00 982.00,918.00 982.00,918.00
             982.00,918.00 981.00,935.00 981.00,935.00
             981.00,935.00 981.00,986.00 981.00,986.00
             981.10,1007.85 989.50,1030.97 1007.00,1044.71
             1015.04,1051.03 1020.60,1052.16 1030.00,1054.69
             1032.78,1055.44 1035.10,1056.57 1038.00,1056.87
             1041.11,1057.19 1043.10,1056.54 1046.00,1056.32
             1053.11,1055.79 1065.99,1060.66 1073.00,1063.00
             1073.00,1063.00 1126.00,1081.80 1126.00,1081.80
             1134.69,1085.29 1154.08,1093.07 1159.58,1100.04
             1161.76,1102.79 1162.63,1105.55 1162.91,1109.00
             1164.29,1125.90 1157.37,1148.79 1137.00,1148.82
             1127.09,1148.84 1109.81,1143.29 1100.00,1140.42
             1100.00,1140.42 1071.00,1132.00 1071.00,1132.00
             1071.00,1132.00 1060.00,1129.05 1060.00,1129.05
             1060.00,1129.05 1028.00,1115.40 1028.00,1115.40
             993.24,1101.51 964.56,1096.69 930.00,1086.28
             930.00,1086.28 824.00,1048.02 824.00,1048.02
             824.00,1048.02 763.00,1031.65 763.00,1031.65
             763.00,1031.65 729.00,1024.10 729.00,1024.10
             729.00,1024.10 711.00,1016.42 711.00,1016.42
             711.00,1016.42 668.00,999.34 668.00,999.34
             668.00,999.34 647.00,994.28 647.00,994.28
             641.44,993.50 631.97,992.86 627.00,990.86
             620.51,988.24 616.76,981.77 611.96,977.04
             606.25,971.41 599.92,968.67 592.00,968.00
             592.00,968.00 593.00,954.00 593.00,954.00
             593.00,954.00 593.00,927.00 593.00,927.00
             593.00,927.00 594.00,910.00 594.00,910.00
             594.02,898.32 594.14,886.46 591.58,875.00
             588.37,860.65 581.79,847.28 575.69,834.00
             575.69,834.00 568.00,817.00 568.00,817.00
             568.00,817.00 600.00,806.05 600.00,806.05
             600.00,806.05 650.00,789.43 650.00,789.43
             650.00,789.43 723.00,775.12 723.00,775.12
             723.00,775.12 765.00,756.20 765.00,756.20
             765.00,756.20 781.00,752.17 781.00,752.17
             781.00,752.17 792.99,751.27 792.99,751.27
             792.99,751.27 800.17,746.70 800.17,746.70
             800.17,746.70 820.00,740.15 820.00,740.15
             820.00,740.15 853.00,724.86 853.00,724.86
             853.00,724.86 884.00,718.74 884.00,718.74
             884.00,718.74 901.00,714.28 901.00,714.28
             901.00,714.28 930.00,704.05 930.00,704.05
             930.00,704.05 989.00,683.00 989.00,683.00 Z
           M 363.00,668.29
           C 341.22,671.89 331.13,684.25 319.69,702.00
             304.52,725.54 296.86,739.71 294.91,768.00
             294.91,768.00 294.01,777.00 294.01,777.00
             293.91,781.56 295.79,806.58 297.15,810.00
             299.04,814.77 301.60,815.12 304.04,818.26
             306.49,821.41 307.90,826.85 315.00,832.66
             320.13,836.86 324.00,837.00 328.00,839.70
             328.00,839.70 341.00,851.21 341.00,851.21
             341.00,851.21 365.00,862.26 365.00,862.26
             381.74,870.89 389.52,879.75 410.00,880.91
             413.44,881.10 418.62,880.30 422.00,879.50
             443.36,874.41 447.80,853.72 449.09,835.00
             449.33,831.55 450.08,829.63 449.82,826.00
             449.82,826.00 449.00,813.00 449.00,813.00
             448.85,800.60 445.68,783.99 439.88,773.00
             439.88,773.00 427.88,754.00 427.88,754.00
             425.07,747.39 425.97,740.54 423.54,734.00
             419.31,722.63 409.16,706.29 402.33,696.00
             391.87,680.23 384.86,666.29 363.00,668.29 Z
           M 777.00,820.29
           C 767.18,821.79 759.98,823.45 751.00,827.97
             751.00,827.97 727.00,841.38 727.00,841.38
             727.00,841.38 692.00,850.03 692.00,850.03
             676.57,854.92 663.20,863.98 651.00,874.43
             645.67,878.99 640.55,883.82 635.83,889.00
             628.82,896.70 622.61,903.73 625.42,915.00
             626.89,920.93 631.89,924.54 637.00,927.22
             637.00,927.22 671.00,940.19 671.00,940.19
             671.00,940.19 762.00,974.42 762.00,974.42
             778.57,980.67 805.74,991.79 823.00,992.00
             823.00,992.00 833.00,992.00 833.00,992.00
             850.80,991.97 867.12,983.83 882.00,974.80
             887.34,971.55 898.07,965.12 901.15,960.00
             904.61,954.23 901.29,949.71 899.90,944.00
             898.40,937.87 897.93,931.29 898.00,925.00
             898.00,925.00 899.00,910.00 899.00,910.00
             899.03,890.81 900.49,872.44 888.24,856.00
             881.00,846.28 878.32,848.24 873.00,845.73
             873.00,845.73 865.00,841.15 865.00,841.15
             838.12,825.79 808.08,817.38 777.00,820.29 Z" />
  <path id="Zwart"
        fill="black"
        d="M 495.00,1056.00
           C 488.43,1044.32 484.10,1042.64 479.08,1028.00
             476.90,1021.65 476.07,1010.67 470.89,1006.43
             466.36,1002.72 457.69,1003.49 452.00,1002.10
             444.74,1000.33 443.13,997.76 438.00,996.53
             438.00,996.53 401.00,991.73 401.00,991.73
             401.00,991.73 295.00,976.84 295.00,976.84
             295.00,976.84 252.00,972.91 252.00,972.91
             252.00,972.91 242.00,971.96 242.00,971.96
             242.00,971.96 230.00,971.96 230.00,971.96
             230.00,971.96 220.00,971.00 220.00,971.00
             209.73,970.88 189.51,970.59 181.02,976.13
             171.69,982.22 175.02,989.07 173.44,994.00
             172.63,996.53 170.15,999.83 168.53,1002.00
             168.53,1002.00 150.88,1025.00 150.88,1025.00
             150.88,1025.00 116.05,1076.00 116.05,1076.00
             108.66,1087.67 98.68,1109.87 88.00,1116.89
             80.23,1122.01 71.06,1123.10 62.00,1123.00
             37.98,1122.72 10.51,1108.49 2.09,1085.00
             -0.29,1078.36 -0.08,1073.87 0.00,1067.00
             0.18,1051.93 9.61,1037.69 16.85,1025.00
             16.85,1025.00 22.95,1014.09 22.95,1014.09
             22.95,1014.09 27.91,1007.91 27.91,1007.91
             27.91,1007.91 35.66,996.00 35.66,996.00
             35.66,996.00 69.58,943.00 69.58,943.00
             69.58,943.00 127.23,853.00 127.23,853.00
             127.23,853.00 139.28,836.09 139.28,836.09
             139.28,836.09 143.84,827.00 143.84,827.00
             143.84,827.00 154.05,811.00 154.05,811.00
             154.05,811.00 191.20,753.00 191.20,753.00
             194.37,747.11 191.61,746.19 194.80,739.00
             194.80,739.00 224.43,680.00 224.43,680.00
             234.65,662.15 245.24,655.73 250.65,646.00
             257.49,633.71 253.82,621.87 260.69,603.00
             265.65,589.40 274.07,584.79 278.94,572.00
             278.94,572.00 287.65,538.00 287.65,538.00
             287.65,538.00 300.42,489.00 300.42,489.00
             300.42,489.00 313.69,448.00 313.69,448.00
             313.69,448.00 321.76,425.00 321.76,425.00
             321.76,425.00 330.08,376.00 330.08,376.00
             330.08,376.00 345.25,286.00 345.25,286.00
             345.25,286.00 353.42,237.00 353.42,237.00
             353.42,237.00 359.66,200.00 359.66,200.00
             359.96,194.63 356.93,192.55 357.56,187.00
             358.02,182.90 361.61,175.84 361.96,167.00
             361.96,167.00 361.00,151.00 361.00,151.00
             360.99,142.23 361.01,134.59 363.43,126.00
             365.57,118.39 370.29,111.18 369.68,103.00
             369.68,103.00 369.00,86.00 369.00,86.00
             369.11,77.03 371.55,68.69 373.33,60.00
             373.33,60.00 375.10,48.00 375.10,48.00
             375.10,48.00 385.23,25.00 385.23,25.00
             392.38,9.34 394.30,0.03 414.00,0.00
             414.00,0.00 453.00,0.00 453.00,0.00
             466.68,0.02 471.02,4.33 482.00,11.31
             490.71,16.84 497.69,18.91 504.21,28.00
             510.68,37.02 511.98,44.27 512.04,55.00
             512.04,55.00 512.04,72.00 512.04,72.00
             510.78,88.67 508.34,105.61 505.00,122.00
             502.12,136.14 498.00,149.43 498.00,164.00
             498.00,164.00 521.00,156.05 521.00,156.05
             521.00,156.05 545.00,147.69 545.00,147.69
             545.00,147.69 627.00,119.31 627.00,119.31
             627.00,119.31 664.00,106.33 664.00,106.33
             664.00,106.33 678.00,101.53 678.00,101.53
             682.64,100.46 685.34,102.33 690.00,101.53
             698.84,100.40 703.72,94.08 720.00,94.00
             736.38,93.92 761.72,97.20 776.00,105.34
             792.50,114.74 802.57,134.49 795.76,153.00
             793.43,159.32 789.42,164.71 785.35,170.00
             779.95,177.00 774.08,183.74 767.00,189.10
             755.72,197.64 752.16,195.65 746.00,199.34
             746.00,199.34 736.00,206.41 736.00,206.41
             725.97,213.44 716.81,218.76 705.00,222.28
             705.00,222.28 656.00,233.00 656.00,233.00
             656.00,233.00 616.00,248.99 616.00,248.99
             599.16,255.94 566.42,267.50 549.00,271.00
             554.51,295.17 574.89,313.38 590.83,331.00
             590.83,331.00 621.91,364.00 621.91,364.00
             621.91,364.00 637.91,381.00 637.91,381.00
             637.91,381.00 645.04,388.94 645.04,388.94
             650.17,393.85 651.00,392.02 656.00,394.80
             659.33,396.65 665.15,401.43 668.00,404.09
             678.81,414.14 688.65,427.01 695.69,440.00
             695.69,440.00 702.53,453.96 702.53,453.96
             706.31,460.62 710.85,457.95 717.90,465.09
             726.50,473.82 725.13,485.76 725.00,497.00
             724.81,513.16 717.52,532.95 702.00,540.10
             689.33,545.94 678.42,545.02 665.00,545.00
             641.34,544.96 633.90,531.17 621.57,514.00
             617.44,508.24 610.75,500.19 605.91,495.00
             605.91,495.00 583.00,472.99 583.00,472.99
             583.00,472.99 547.00,438.43 547.00,438.43
             543.69,435.60 537.54,430.51 534.00,428.25
             531.43,426.61 528.37,425.69 526.21,423.70
             523.79,421.47 521.10,416.04 519.14,413.00
             515.89,407.98 512.16,403.28 507.99,399.00
             494.62,385.30 481.84,376.12 471.00,360.00
             471.00,360.00 467.61,380.00 467.61,380.00
             464.50,396.63 456.02,437.33 456.08,452.00
             456.08,452.00 456.08,471.00 456.08,471.00
             456.08,471.00 457.74,484.00 457.74,484.00
             457.74,484.00 455.17,499.00 455.17,499.00
             454.62,504.67 455.50,510.41 456.43,516.00
             459.68,535.31 470.38,558.61 477.80,577.00
             492.04,612.31 504.62,644.28 506.01,683.00
             506.55,697.99 510.26,724.95 515.00,739.00
             517.00,744.91 519.34,750.51 522.31,756.00
             524.60,760.24 527.53,764.03 528.03,769.00
             527.96,771.30 527.48,772.54 528.03,775.00
             529.96,780.53 538.60,791.96 544.00,794.15
             546.96,795.34 549.92,794.79 553.00,795.21
             556.17,795.63 557.57,796.64 561.00,796.23
             565.89,795.64 581.29,789.34 587.00,787.34
             587.00,787.34 646.00,767.88 646.00,767.88
             646.00,767.88 677.00,761.42 677.00,761.42
             691.59,759.16 702.53,758.44 717.00,753.81
             717.00,753.81 751.00,738.42 751.00,738.42
             751.00,738.42 772.83,730.59 772.83,730.59
             772.83,730.59 780.01,725.84 780.01,725.84
             783.93,724.41 786.19,725.39 790.00,725.84
             794.70,726.03 802.61,723.92 807.00,722.14
             807.00,722.14 848.00,703.34 848.00,703.34
             848.00,703.34 879.00,697.55 879.00,697.55
             889.27,695.49 900.12,691.82 910.00,688.31
             910.00,688.31 973.00,664.69 973.00,664.69
             973.00,664.69 1010.00,653.08 1010.00,653.08
             1010.00,653.08 1026.00,645.92 1026.00,645.92
             1035.88,643.13 1061.27,641.12 1072.00,641.00
             1072.00,641.00 1085.00,640.00 1085.00,640.00
             1092.57,639.92 1104.97,640.07 1112.00,642.55
             1119.33,645.13 1122.86,648.80 1129.00,652.54
             1132.56,654.71 1138.00,656.87 1140.90,659.39
             1147.37,665.02 1147.09,672.23 1147.00,680.00
             1146.81,695.64 1140.13,702.86 1137.93,711.00
             1135.74,719.08 1139.16,726.48 1128.98,734.47
             1120.88,740.83 1105.06,741.87 1095.00,742.00
             1087.78,742.10 1075.51,748.19 1067.00,750.37
             1052.20,754.16 1034.62,754.50 1022.01,763.93
             1010.89,772.25 1006.16,789.63 1006.00,803.00
             1006.00,803.00 1005.00,822.00 1005.00,822.00
             1005.00,822.00 1005.00,858.00 1005.00,858.00
             1005.00,858.00 1004.00,873.00 1004.00,873.00
             1004.00,873.00 1004.00,910.00 1004.00,910.00
             1004.00,910.00 1003.00,926.00 1003.00,926.00
             1003.00,926.00 1003.00,958.00 1003.00,958.00
             1003.00,958.00 1002.02,972.00 1002.02,972.00
             1002.02,972.00 1003.04,983.00 1003.04,983.00
             1003.04,983.00 1003.04,991.00 1003.04,991.00
             1004.49,1004.17 1009.76,1018.07 1020.00,1026.79
             1027.11,1032.84 1030.04,1031.85 1038.00,1033.37
             1038.00,1033.37 1045.00,1034.90 1045.00,1034.90
             1050.48,1035.40 1052.84,1034.50 1059.00,1035.89
             1077.26,1040.00 1119.55,1055.62 1138.00,1063.00
             1149.45,1067.58 1167.56,1075.06 1175.82,1084.04
             1183.78,1092.70 1185.13,1103.78 1185.00,1115.00
             1184.76,1135.04 1174.76,1159.74 1155.00,1167.54
             1147.24,1170.60 1140.15,1170.09 1132.00,1170.00
             1119.51,1169.85 1097.48,1162.86 1085.00,1159.02
             1085.00,1159.02 1063.00,1152.74 1063.00,1152.74
             1063.00,1152.74 1053.00,1150.45 1053.00,1150.45
             1053.00,1150.45 1033.00,1141.28 1033.00,1141.28
             1033.00,1141.28 992.00,1126.02 992.00,1126.02
             992.00,1126.02 919.00,1106.00 919.00,1106.00
             919.00,1106.00 849.00,1080.05 849.00,1080.05
             849.00,1080.05 802.00,1064.72 802.00,1064.72
             802.00,1064.72 748.00,1050.88 748.00,1050.88
             748.00,1050.88 720.00,1044.14 720.00,1044.14
             720.00,1044.14 696.00,1033.86 696.00,1033.86
             696.00,1033.86 660.00,1020.02 660.00,1020.02
             660.00,1020.02 619.00,1011.56 619.00,1011.56
             613.14,1009.42 608.46,1006.70 604.30,1001.98
             600.11,997.24 596.40,989.66 589.00,990.23
             579.46,990.96 583.58,998.34 585.28,1004.00
             585.28,1004.00 597.28,1045.00 597.28,1045.00
             597.28,1045.00 601.52,1059.00 601.52,1059.00
             601.52,1059.00 608.34,1085.00 608.34,1085.00
             608.34,1085.00 620.56,1115.00 620.56,1115.00
             625.94,1133.17 622.46,1150.34 614.24,1167.00
             604.18,1187.42 595.22,1198.53 571.00,1197.99
             550.08,1197.51 527.55,1188.86 519.47,1168.00
             516.71,1160.88 517.08,1155.34 517.00,1148.00
             516.81,1132.52 504.96,1124.42 500.37,1106.00
             498.67,1099.15 497.99,1090.08 498.00,1083.00
             498.00,1083.00 499.24,1065.00 499.24,1065.00
             499.01,1061.52 497.87,1058.34 497.00,1055.00
             497.00,1055.00 495.00,1056.00 495.00,1056.00 Z
           M 435.00,470.00
           C 435.00,470.00 435.00,453.00 435.00,453.00
             435.02,442.16 437.85,425.93 439.75,415.00
             439.75,415.00 450.39,358.00 450.39,358.00
             452.42,347.17 453.30,334.65 464.00,328.53
             466.51,327.10 469.09,326.18 472.00,326.62
             485.86,328.69 485.72,343.77 491.84,353.00
             496.80,360.47 506.40,367.71 513.00,374.00
             519.36,380.06 525.54,386.05 530.99,393.00
             530.99,393.00 540.61,406.49 540.61,406.49
             540.61,406.49 564.00,425.29 564.00,425.29
             564.00,425.29 597.00,456.96 597.00,456.96
             597.00,456.96 607.00,466.01 607.00,466.01
             615.82,474.62 624.68,483.32 632.34,493.00
             632.34,493.00 649.17,516.00 649.17,516.00
             658.82,526.66 666.99,525.51 680.00,524.05
             686.59,523.31 693.02,522.24 697.61,516.90
             703.32,510.25 704.11,495.52 704.00,487.00
             703.97,484.90 704.04,482.27 702.83,480.47
             701.71,478.81 698.89,477.58 697.20,476.21
             697.20,476.21 692.63,471.78 692.63,471.78
             687.76,467.86 686.24,468.53 683.04,462.00
             674.64,444.83 666.14,429.74 651.00,417.33
             642.51,410.37 642.16,415.84 633.00,406.98
             633.00,406.98 622.91,396.00 622.91,396.00
             622.91,396.00 605.91,378.00 605.91,378.00
             605.91,378.00 561.93,331.00 561.93,331.00
             548.03,315.69 541.18,305.45 532.20,287.00
             529.55,281.56 525.20,267.95 526.29,262.00
             527.54,255.14 534.16,253.14 540.00,251.63
             540.00,251.63 583.00,239.00 583.00,239.00
             583.00,239.00 651.00,212.35 651.00,212.35
             651.00,212.35 701.00,201.31 701.00,201.31
             716.51,195.90 723.90,187.90 737.00,179.81
             742.41,176.47 744.17,177.74 750.00,174.67
             758.67,170.11 765.45,161.82 771.11,154.00
             774.15,149.80 777.32,144.41 776.63,139.00
             775.74,131.98 769.93,126.18 764.00,122.90
             754.08,117.42 733.41,114.87 722.00,115.00
             710.42,115.14 702.61,120.63 692.00,122.54
             692.00,122.54 679.00,123.61 679.00,123.61
             679.00,123.61 626.00,142.00 626.00,142.00
             626.00,142.00 539.00,172.31 539.00,172.31
             539.00,172.31 509.00,182.67 509.00,182.67
             504.57,184.14 497.46,186.96 493.00,186.92
             481.70,186.82 477.12,175.69 477.00,166.00
             477.00,166.00 477.00,158.00 477.00,158.00
             477.13,147.51 482.97,124.55 485.20,113.00
             485.20,113.00 490.82,74.00 490.82,74.00
             490.82,74.00 490.82,63.00 490.82,63.00
             490.82,63.00 490.82,56.00 490.82,56.00
             491.31,40.79 485.17,37.15 473.00,30.15
             468.47,27.55 462.73,23.15 458.00,21.79
             454.10,20.66 447.27,21.00 443.00,21.00
             443.00,21.00 418.00,21.00 418.00,21.00
             415.78,21.00 412.30,20.78 410.41,22.02
             408.04,23.59 403.04,36.64 401.58,40.00
             401.58,40.00 396.04,53.00 396.04,53.00
             396.04,53.00 395.20,61.00 395.20,61.00
             392.77,72.41 390.02,78.53 390.00,91.00
             390.00,91.00 390.68,107.00 390.68,107.00
             389.74,119.31 386.50,121.64 383.75,132.00
             381.98,138.70 381.92,144.18 382.00,151.00
             382.00,151.00 382.91,167.00 382.91,167.00
             382.91,167.00 380.26,186.00 380.26,186.00
             380.17,190.39 382.03,191.79 381.53,197.00
             381.53,197.00 376.41,227.00 376.41,227.00
             376.41,227.00 366.08,289.00 366.08,289.00
             366.08,289.00 351.08,378.00 351.08,378.00
             351.08,378.00 342.55,429.00 342.55,429.00
             342.55,429.00 337.00,447.00 337.00,447.00
             350.06,444.66 363.14,447.03 376.00,449.60
             401.77,454.75 411.75,457.00 435.00,470.00 Z
           M 344.00,466.29
           C 339.13,467.10 333.13,468.27 329.42,471.79
             326.79,474.27 325.45,479.54 324.34,483.00
             324.34,483.00 316.71,509.00 316.71,509.00
             316.71,509.00 307.88,543.00 307.88,543.00
             305.04,555.00 303.36,567.44 298.94,579.00
             292.26,596.45 282.82,601.64 279.22,613.00
             279.22,613.00 273.28,646.00 273.28,646.00
             268.48,661.99 259.56,667.82 250.01,680.00
             243.60,688.18 236.01,702.48 231.25,712.00
             231.25,712.00 220.75,734.00 220.75,734.00
             218.19,739.13 215.32,743.12 215.42,749.00
             215.57,757.11 209.56,763.40 205.42,770.00
             205.42,770.00 175.34,817.00 175.34,817.00
             175.34,817.00 113.31,914.00 113.31,914.00
             113.31,914.00 66.42,987.00 66.42,987.00
             66.42,987.00 55.00,1005.00 55.00,1005.00
             55.00,1005.00 46.00,1019.00 46.00,1019.00
             46.00,1019.00 38.95,1029.00 38.95,1029.00
             38.95,1029.00 30.85,1043.00 30.85,1043.00
             23.00,1056.67 15.08,1071.49 26.53,1085.99
             28.80,1088.87 30.99,1090.61 34.00,1092.64
             38.81,1095.89 41.57,1096.92 47.00,1098.66
             52.88,1100.54 59.80,1102.21 66.00,1101.96
             79.91,1101.40 82.09,1092.40 87.86,1082.00
             87.86,1082.00 103.58,1056.00 103.58,1056.00
             103.58,1056.00 148.87,993.00 148.87,993.00
             156.15,983.14 150.50,982.22 157.93,970.00
             167.87,953.64 188.31,950.03 206.00,950.00
             206.00,950.00 227.00,950.00 227.00,950.00
             227.00,950.00 239.00,950.91 239.00,950.91
             239.00,950.91 266.00,952.83 266.00,952.83
             266.00,952.83 374.00,966.73 374.00,966.73
             374.00,966.73 424.00,973.72 424.00,973.72
             424.00,973.72 445.00,976.20 445.00,976.20
             450.49,977.18 453.61,980.66 459.00,982.21
             465.47,984.07 475.15,981.41 484.91,989.53
             495.65,998.46 495.44,1012.08 500.07,1024.00
             503.87,1033.80 511.91,1040.34 516.13,1050.00
             519.22,1057.09 520.08,1065.32 520.00,1073.00
             520.00,1073.00 519.04,1084.00 519.04,1084.00
             518.80,1090.20 520.47,1101.28 522.87,1107.00
             529.34,1122.37 537.97,1128.93 538.00,1147.00
             538.01,1151.52 537.44,1157.99 539.45,1162.00
             544.99,1173.03 564.60,1177.48 576.00,1176.96
             584.57,1176.57 587.03,1171.77 590.99,1165.00
             597.59,1153.73 602.15,1145.30 602.00,1132.00
             601.83,1117.73 592.14,1103.57 587.67,1090.00
             587.67,1090.00 581.12,1065.00 581.12,1065.00
             581.12,1065.00 572.58,1036.00 572.58,1036.00
             572.58,1036.00 561.46,997.00 561.46,997.00
             560.47,991.37 560.59,984.89 563.85,980.00
             566.30,976.33 569.29,974.59 570.40,971.83
             571.29,969.64 570.93,964.59 571.04,962.00
             571.04,962.00 572.00,949.00 572.00,949.00
             572.00,949.00 572.00,923.00 572.00,923.00
             572.00,923.00 573.00,907.00 573.00,907.00
             573.04,898.08 572.92,891.92 571.71,883.00
             569.80,868.83 563.53,857.72 557.86,845.00
             557.86,845.00 546.64,821.13 546.64,821.13
             543.31,816.14 539.71,818.09 530.00,810.76
             530.00,810.76 521.38,803.56 521.38,803.56
             517.75,799.74 507.75,783.12 505.96,778.00
             504.50,773.78 505.45,771.57 504.31,768.00
             504.31,768.00 496.42,750.00 496.42,750.00
             493.67,742.67 490.75,729.84 489.43,722.00
             489.43,722.00 483.72,669.00 483.72,669.00
             481.21,648.87 478.74,640.05 472.33,621.00
             472.33,621.00 439.00,534.00 439.00,534.00
             436.58,525.56 435.00,516.74 434.17,508.00
             433.64,502.50 435.10,497.76 431.57,493.01
             427.01,486.90 417.99,482.18 411.00,479.40
             401.27,475.53 389.29,472.85 379.00,470.58
             368.96,468.36 354.12,465.33 344.00,466.29 Z
           M 1116.00,718.00
           C 1116.02,711.39 1116.33,708.25 1118.86,702.00
             1121.51,695.47 1126.94,685.21 1125.86,678.10
             1125.22,673.85 1120.27,672.49 1117.00,670.23
             1113.27,667.65 1110.33,664.73 1106.00,662.98
             1099.82,660.48 1090.69,660.93 1084.00,661.00
             1084.00,661.00 1057.09,663.30 1057.09,663.30
             1052.99,664.33 1051.76,667.55 1046.00,668.66
             1039.19,669.98 1031.63,668.88 1025.00,671.70
             1019.03,674.23 1012.68,684.07 1002.00,686.47
             992.40,688.63 992.45,681.74 985.00,683.40
             985.00,683.40 961.00,691.95 961.00,691.95
             961.00,691.95 913.00,709.31 913.00,709.31
             903.18,712.80 893.22,715.91 883.00,718.00
             871.96,720.25 866.42,719.95 855.00,723.67
             837.92,729.24 833.44,733.40 819.00,739.57
             819.00,739.57 800.00,745.70 800.00,745.70
             800.00,745.70 792.00,750.52 792.00,750.52
             789.43,751.49 785.84,750.92 783.00,751.09
             779.36,751.32 772.49,752.63 769.00,753.75
             753.30,758.76 740.76,769.31 718.00,775.58
             718.00,775.58 666.00,784.66 666.00,784.66
             647.62,788.59 629.77,794.95 612.00,801.00
             612.00,801.00 581.00,811.95 581.00,811.95
             581.00,811.95 567.00,817.00 567.00,817.00
             569.91,827.22 585.65,852.97 590.58,875.00
             593.80,889.43 593.02,901.41 593.00,916.00
             593.00,916.00 592.00,933.00 592.00,933.00
             592.00,933.00 592.00,969.00 592.00,969.00
             599.90,969.66 606.11,972.43 611.71,978.17
             616.65,983.23 618.86,988.70 626.00,991.44
             626.00,991.44 666.00,999.72 666.00,999.72
             666.00,999.72 725.00,1023.54 725.00,1023.54
             725.00,1023.54 759.00,1031.65 759.00,1031.65
             759.00,1031.65 820.00,1047.72 820.00,1047.72
             820.00,1047.72 906.00,1079.33 906.00,1079.33
             906.00,1079.33 938.00,1089.58 938.00,1089.58
             938.00,1089.58 1002.00,1107.02 1002.00,1107.02
             1002.00,1107.02 1040.00,1121.28 1040.00,1121.28
             1040.00,1121.28 1059.00,1129.76 1059.00,1129.76
             1059.00,1129.76 1069.00,1132.42 1069.00,1132.42
             1069.00,1132.42 1092.00,1139.02 1092.00,1139.02
             1102.63,1142.29 1122.58,1148.87 1133.00,1149.00
             1133.00,1149.00 1139.00,1149.00 1139.00,1149.00
             1156.27,1148.79 1161.46,1133.70 1163.57,1119.00
             1164.70,1111.14 1164.17,1102.13 1157.82,1096.53
             1153.91,1093.09 1139.35,1086.45 1134.00,1084.15
             1134.00,1084.15 1082.00,1065.00 1082.00,1065.00
             1072.56,1061.85 1058.57,1056.11 1049.00,1056.08
             1049.00,1056.08 1038.00,1056.08 1038.00,1056.08
             1038.00,1056.08 1018.00,1050.13 1018.00,1050.13
             992.11,1038.83 983.71,1011.79 981.91,986.00
             981.91,986.00 981.00,976.00 981.00,976.00
             981.00,976.00 982.00,954.00 982.00,954.00
             982.00,954.00 982.00,922.00 982.00,922.00
             982.00,922.00 983.00,905.00 983.00,905.00
             983.00,905.00 983.00,857.00 983.00,857.00
             983.00,857.00 984.00,841.00 984.00,841.00
             984.00,841.00 984.00,817.00 984.00,817.00
             984.00,817.00 984.91,807.00 984.91,807.00
             985.94,792.01 987.59,776.25 995.45,763.00
             1010.20,738.13 1029.86,737.11 1055.00,731.79
             1060.12,730.71 1066.21,729.18 1071.00,727.13
             1078.38,723.97 1080.52,721.12 1089.00,721.00
             1103.71,720.81 1101.44,721.28 1116.00,718.00 Z
           M 361.00,669.44
           C 385.57,666.29 393.64,684.18 404.95,702.00
             410.05,710.04 419.99,726.34 422.90,735.00
             424.68,740.30 424.46,748.45 427.20,755.00
             430.33,762.49 436.08,766.86 440.69,777.00
             447.16,791.26 449.18,814.33 449.00,830.00
             448.74,852.21 442.15,875.60 417.00,879.56
             397.99,882.56 385.59,872.30 370.00,864.26
             370.00,864.26 342.01,850.45 342.01,850.45
             336.53,846.82 335.21,843.46 330.00,839.80
             330.00,839.80 316.01,832.21 316.01,832.21
             309.29,827.28 308.59,822.48 304.37,817.17
             302.29,814.54 299.89,813.15 298.31,809.99
             296.62,806.59 295.06,787.55 295.00,783.00
             294.59,748.03 302.46,729.80 321.67,701.00
             331.76,685.87 342.23,672.95 361.00,669.44 Z
           M 364.00,690.34
           C 349.35,693.85 340.05,710.90 332.80,723.00
             319.66,744.95 315.70,757.35 316.00,783.00
             316.03,785.40 316.91,795.09 317.59,797.00
             318.50,799.54 320.57,801.64 321.93,804.00
             324.13,807.79 324.72,811.39 328.21,814.61
             332.36,818.44 336.62,818.01 345.00,824.67
             345.00,824.67 355.04,833.87 355.04,833.87
             355.04,833.87 375.00,842.31 375.00,842.31
             375.00,842.31 383.00,847.05 383.00,847.05
             393.14,853.40 414.76,867.73 423.59,851.98
             424.80,849.83 425.46,847.40 425.98,845.00
             426.99,840.42 426.99,838.59 427.00,834.00
             427.02,820.34 428.07,803.94 423.45,791.00
             419.31,779.39 411.30,771.46 407.45,762.00
             403.49,752.27 404.98,748.62 403.67,744.00
             401.74,737.22 395.00,726.15 391.19,720.00
             386.87,713.03 376.61,694.47 370.00,691.18
             367.67,690.01 366.45,690.21 364.00,690.34 Z
           M 786.00,820.67
           C 792.57,819.64 792.20,820.51 798.00,820.67
             822.43,822.62 844.89,830.58 866.00,842.86
             875.70,848.50 881.35,847.79 888.25,858.00
             902.39,878.93 898.41,902.66 897.09,926.00
             896.87,929.87 898.38,941.08 899.38,945.00
             900.77,950.45 903.35,954.58 899.99,959.96
             897.48,964.00 890.13,968.27 886.00,971.00
             873.33,979.35 856.22,988.70 841.00,990.71
             814.58,994.20 793.21,985.07 769.00,976.05
             769.00,976.05 675.00,940.68 675.00,940.68
             675.00,940.68 636.00,925.65 636.00,925.65
             630.69,922.49 626.02,917.40 625.41,911.00
             624.16,897.86 644.84,881.02 654.00,873.27
             665.12,863.87 678.04,855.45 692.00,851.03
             692.00,851.03 726.00,842.77 726.00,842.77
             726.00,842.77 757.00,826.43 757.00,826.43
             770.18,820.79 773.18,822.24 786.00,820.67 Z
           M 649.00,908.00
           C 649.00,908.00 677.00,918.81 677.00,918.81
             677.00,918.81 740.00,942.81 740.00,942.81
             740.00,942.81 788.00,960.69 788.00,960.69
             797.30,964.01 811.44,969.16 821.00,970.87
             821.00,970.87 832.00,970.87 832.00,970.87
             841.68,970.88 846.50,968.25 855.00,964.22
             859.64,962.02 874.69,954.57 876.99,950.68
             878.52,948.04 877.27,943.06 876.99,940.00
             876.49,934.19 875.58,931.16 876.17,925.00
             876.17,925.00 877.00,916.00 877.00,916.00
             877.15,903.09 879.83,885.82 873.18,874.05
             870.74,869.74 859.62,863.71 855.00,861.01
             835.20,849.42 812.83,842.80 790.00,841.18
             786.72,840.95 785.10,841.50 782.00,841.84
             756.79,844.53 753.50,856.13 730.00,863.66
             730.00,863.66 697.00,871.69 697.00,871.69
             682.38,876.80 672.12,885.57 661.00,895.91
             655.83,900.72 653.38,901.89 649.00,908.00 Z" />
</svg>
