<?xml version="1.0" encoding="UTF-8" standalone="no"?>
<!DOCTYPE svg PUBLIC "-//W3C//DTD SVG 20010904//EN"
              "http://www.w3.org/TR/2001/REC-SVG-20010904/DTD/svg10.dtd">

<svg xmlns="http://www.w3.org/2000/svg"
     width="101.854mm" height="52.6628mm"
     viewBox="0 0 1203 622">
  <path id="Rood"
        fill="#e30613"
        d="M 90.00,563.00
           C 79.06,557.73 63.45,545.97 54.00,538.08
             30.40,518.38 12.14,493.96 3.94,464.00
             -2.50,439.06 0.10,413.16 3.94,388.00
             11.20,336.19 30.08,282.87 57.00,238.00
             67.61,220.31 77.50,206.13 90.40,190.00
             106.85,169.44 123.91,152.26 144.00,135.27
             194.12,92.89 258.38,61.28 322.00,45.37
             322.00,45.37 369.00,36.27 369.00,36.27
             369.00,36.27 393.00,33.39 393.00,33.39
             393.00,33.39 412.00,29.21 412.00,29.21
             412.00,29.21 444.00,23.42 444.00,23.42
             444.00,23.42 517.00,14.83 517.00,14.83
             517.00,14.83 578.00,7.59 578.00,7.59
             578.00,7.59 628.00,0.00 628.00,0.00
             643.96,-0.18 652.61,3.37 667.00,4.83
             667.00,4.83 722.00,10.42 722.00,10.42
             722.00,10.42 753.00,16.98 753.00,16.98
             753.00,16.98 764.00,16.98 764.00,16.98
             764.00,16.98 779.00,16.00 779.00,16.00
             779.00,16.00 798.00,16.00 798.00,16.00
             798.00,16.00 817.00,17.00 817.00,17.00
             817.00,17.00 827.00,17.91 827.00,17.91
             827.00,17.91 873.00,23.41 873.00,23.41
             898.88,27.57 924.78,32.76 950.00,40.00
             986.55,50.49 1043.59,70.60 1074.00,92.43
             1081.55,97.85 1089.64,104.83 1095.54,112.00
             1095.54,112.00 1120.80,148.00 1120.80,148.00
             1130.49,159.98 1139.78,165.99 1150.57,181.00
             1162.82,198.03 1169.49,213.08 1177.86,232.00
             1190.76,261.18 1199.84,284.83 1202.09,317.00
             1202.09,317.00 1203.00,327.00 1203.00,327.00
             1203.00,327.00 1203.00,363.00 1203.00,363.00
             1203.00,363.00 1202.00,385.00 1202.00,385.00
             1201.77,404.68 1195.88,434.13 1187.69,452.00
             1171.13,488.14 1138.71,512.89 1104.00,530.25
             1104.00,530.25 1052.00,552.37 1052.00,552.37
             1052.00,552.37 1040.00,557.90 1040.00,557.90
             1040.00,557.90 1026.00,561.04 1026.00,561.04
             1026.00,561.04 956.00,579.42 956.00,579.42
             918.01,587.81 879.60,593.54 841.00,598.15
             841.00,598.15 822.00,600.28 822.00,600.28
             822.00,600.28 797.00,604.00 797.00,604.00
             797.00,604.00 736.00,608.83 736.00,608.83
             736.00,608.83 703.00,611.09 703.00,611.09
             703.00,611.09 674.00,613.09 674.00,613.09
             674.00,613.09 662.00,614.00 662.00,614.00
             662.00,614.00 641.00,615.00 641.00,615.00
             641.00,615.00 617.00,615.00 617.00,615.00
             617.00,615.00 597.00,614.00 597.00,614.00
             597.00,614.00 577.00,612.47 577.00,612.47
             574.09,612.83 570.96,615.30 568.00,616.52
             562.66,618.73 558.65,618.99 553.00,619.00
             553.00,619.00 545.00,619.00 545.00,619.00
             545.00,619.00 530.00,620.00 530.00,620.00
             530.00,620.00 469.00,620.00 469.00,620.00
             469.00,620.00 454.00,619.00 454.00,619.00
             454.00,619.00 433.00,619.00 433.00,619.00
             433.00,619.00 417.00,617.96 417.00,617.96
             417.00,617.96 405.00,617.96 405.00,617.96
             405.00,617.96 395.00,616.98 395.00,616.98
             395.00,616.98 379.83,616.98 379.83,616.98
             379.83,616.98 340.00,622.00 340.00,622.00
             340.00,622.00 318.00,622.00 318.00,622.00
             295.32,621.73 257.90,606.95 235.00,600.43
             208.86,592.97 165.80,583.61 139.00,582.09
             139.00,582.09 127.00,582.78 127.00,582.78
             121.18,582.11 121.41,580.02 109.00,580.00
             99.14,579.98 87.87,580.92 89.12,567.00
             89.26,565.37 89.57,564.52 90.00,563.00 Z
           M 490.00,171.00
           C 487.45,175.95 485.51,187.14 484.12,193.00
             484.12,193.00 475.12,230.00 475.12,230.00
             469.17,255.08 463.63,280.29 461.17,306.00
             461.17,306.00 459.00,348.00 459.00,348.00
             459.00,348.00 458.00,365.00 458.00,365.00
             458.00,365.00 458.00,411.00 458.00,411.00
             458.00,411.00 457.00,424.00 457.00,424.00
             457.00,424.00 457.00,453.00 457.00,453.00
             457.00,453.00 502.00,448.72 502.00,448.72
             529.28,445.32 555.53,439.50 581.00,428.99
             619.44,413.13 651.59,385.54 690.00,369.42
             710.27,360.92 730.75,355.68 752.00,350.37
             762.63,347.72 785.39,341.67 794.00,336.00
             794.00,336.00 776.00,326.14 776.00,326.14
             776.00,326.14 726.00,298.69 726.00,298.69
             726.00,298.69 578.00,220.25 578.00,220.25
             578.00,220.25 536.00,198.75 536.00,198.75
             531.56,196.54 520.26,190.19 516.00,189.58
             513.48,189.59 511.93,190.23 509.00,189.58
             501.88,187.20 493.65,177.25 490.00,171.00 Z" />
</svg>
